<?xml version="1.0" encoding="UTF-8"?> <svg xmlns="http://www.w3.org/2000/svg" width="400" height="225" viewBox="0 0 400 225"><defs><style>.a{fill:#d1e6ec;}.b{fill:#fa5f2d;}.c{fill:#0172d0;}.d{fill:#0056c5;}.e{fill:#083796;}.f{fill:#0036ac;}.g{fill:#ffa681;}.h{fill:#f97853;}.i{fill:#18315b;}.j{fill:#ea5143;}.k{fill:#fff;}.l{fill:#1d567e;}.m{fill:#000b29;}.n{fill:#002b5c;}.o{fill:#d33e2f;}.p{fill:#fbab7f;}</style></defs><title>6 Reasons Why You Should Host Virtual Events</title><path class="a" d="M189.92,81.54C180.54,49.32,138.26,38.94,114,63L113,64.08C78.26,99.83,94.67,187.93,167.16,210.27s147.89-18.45,152.13-54.9-29.21-47.91-81.11-37.72C208.85,123.41,195.76,101.61,189.92,81.54Z"></path><path class="a" d="M118.34,53.85l-1.69-.63s.4-.95,1.23-2.48l1.62.79C118.71,53,118.34,53.84,118.34,53.85Z"></path><path class="a" d="M121,49l-1.56-.87c.93-1.49,2-3,3.07-4.47l1.48,1C122.9,46.05,121.9,47.51,121,49Zm4.85-6.71-1.44-1.06c1.15-1.39,2.36-2.76,3.63-4.07l1.34,1.16C128.14,39.56,127,40.89,125.84,42.25Zm134.54-1.39c-1.12-1.3-2.34-2.61-3.64-3.88l1.3-1.19c1.34,1.3,2.6,2.64,3.75,4ZM131.51,36.14l-1.29-1.21c1.31-1.25,2.69-2.48,4.1-3.64l1.19,1.3C134.14,33.72,132.79,34.92,131.51,36.14Zm123-1.23c-1.32-1.17-2.71-2.32-4.13-3.41l1.14-1.34c1.46,1.12,2.89,2.3,4.23,3.5ZM137.9,30.7l-1.13-1.34c1.46-1.1,3-2.16,4.52-3.16l1,1.42C140.81,28.59,139.32,29.63,137.9,30.7Zm110-1c-1.45-1-3-2-4.51-3l1-1.45c1.57,1,3.13,2,4.62,3ZM144.92,26l-1-1.46c1.58-.93,3.21-1.82,4.87-2.65l.85,1.52C148.05,24.22,146.45,25.09,144.92,26Zm95.85-.81c-1.56-.87-3.19-1.7-4.83-2.47l.81-1.54c1.68.79,3.34,1.64,4.94,2.53Zm-88.32-3.11-.79-1.55c1.67-.76,3.4-1.48,5.14-2.13l.67,1.6C155.77,20.64,154.08,21.34,152.45,22.08Zm80.68-.62c-1.65-.7-3.36-1.37-5.08-2l.64-1.61c1.75.62,3.5,1.29,5.18,2ZM160.38,19l-.6-1.62c1.74-.59,3.53-1.13,5.34-1.62l.49,1.66C163.85,17.85,162.09,18.38,160.38,19Zm64.73-.46c-1.71-.54-3.49-1-5.26-1.48l.47-1.67c1.81.46,3.61,1,5.37,1.52Zm-56.48-1.88L168.19,15c1.79-.42,3.63-.79,5.48-1.11l.33,1.69C172.19,15.84,170.38,16.21,168.63,16.62Zm48.19-.31c-1.76-.39-3.57-.73-5.39-1l.31-1.69c1.84.29,3.69.64,5.49,1ZM177.07,15l-.27-1.7c1.82-.26,3.68-.48,5.55-.66l.18,1.72C180.69,14.57,178.86,14.78,177.07,15Zm31.28-.2c-1.79-.23-3.63-.42-5.47-.57l.15-1.71c1.87.15,3.74.34,5.57.58Zm-22.71-.69-.12-1.71c1.83-.12,3.71-.2,5.58-.23l0,1.72C189.29,14,187.44,14,185.64,14.15Zm14.13-.08c-1.81-.1-3.66-.15-5.51-.16l0-1.72c1.87,0,3.75.07,5.59.16Z"></path><path class="a" d="M263.79,45.33s-.5-.81-1.5-2.13l1.47-1a26,26,0,0,1,1.6,2.28Z"></path><path class="a" d="M85.28,136.18A35.39,35.39,0,0,1,80.65,133l1.18-1.31a34.38,34.38,0,0,0,4.4,3.07Zm-7-5.33a39.19,39.19,0,0,1-3.72-4.13l1.47-1a35.59,35.59,0,0,0,3.54,3.94Zm-5.53-6.69a36.32,36.32,0,0,1-2.61-4.83l1.68-.67a33.4,33.4,0,0,0,2.48,4.6ZM69,116.44a37,37,0,0,1-1.35-5.27l1.79-.28a35.19,35.19,0,0,0,1.29,5Zm-1.76-8.31c-.12-1.25-.18-2.52-.18-3.8,0-.54,0-1.09,0-1.62l1.81.09c0,.51,0,1,0,1.53a36.38,36.38,0,0,0,.17,3.64Zm2-8.22-1.8-.28a27.89,27.89,0,0,1,1.47-5.27l1.71.59A25.58,25.58,0,0,0,69.26,99.91Zm2.59-7.65-1.63-.75a32.52,32.52,0,0,1,3-4.67l1.47,1A32.27,32.27,0,0,0,71.85,92.26Zm4.7-6.74-1.38-1.11a42,42,0,0,1,4-3.88l1.22,1.28A39.65,39.65,0,0,0,76.55,85.52Zm6.22-5.61-1.12-1.35a35.33,35.33,0,0,1,4.8-3L87.3,77A35.79,35.79,0,0,0,82.77,79.91ZM87.3,77l-.43-.76.43.76Z"></path><path class="a" d="M306.5,132.15l-.94-1.47a34.09,34.09,0,0,0,4.39-3.07l1.19,1.31A36.67,36.67,0,0,1,306.5,132.15Zm7-5.34-1.29-1.2a37.59,37.59,0,0,0,3.55-3.94l1.46,1A37.1,37.1,0,0,1,313.51,126.81Zm5.53-6.69-1.55-.89a34.17,34.17,0,0,0,2.49-4.61l1.67.67A35.21,35.21,0,0,1,319,120.12Zm3.74-7.72-1.73-.53a33.9,33.9,0,0,0,1.29-5l1.79.28A35.71,35.71,0,0,1,322.78,112.4Zm1.77-8.31-1.81-.16c.11-1.19.17-2.41.17-3.64,0-.51,0-1-.05-1.53l1.82-.09c0,.54,0,1.08,0,1.62C324.72,101.57,324.66,102.85,324.55,104.09Zm-2-8.22a26.3,26.3,0,0,0-1.38-5l1.7-.59a27.36,27.36,0,0,1,1.47,5.27Zm-2.59-7.64a30.94,30.94,0,0,0-2.8-4.43l1.48-1a33.42,33.42,0,0,1,2.95,4.67Zm-4.71-6.75a39.53,39.53,0,0,0-3.82-3.71l1.21-1.28a42.07,42.07,0,0,1,4,3.88ZM309,75.87A35.72,35.72,0,0,0,304.49,73l.85-1.52a36.39,36.39,0,0,1,4.79,3Z"></path><path class="a" d="M177.9,40.73l.66-3.18L175.41,37a7,7,0,0,0-.41-2.33L177.59,33l-1.91-2.69-2.48,1.58a7.75,7.75,0,0,0-2.54-1.62l.61-3-3.35-.62-.64,3.07a8,8,0,0,0-2,.37l-1.74-2.45-2.84,1.81,1.66,2.34a7.33,7.33,0,0,0-1.71,2.42l-2.75-.52-.66,3.18,2.85.53a6.89,6.89,0,0,0,.6,2.45l-2.48,1.58,1.91,2.69,2.59-1.65a7.77,7.77,0,0,0,2.5,1.38l-.62,3,3.36.63.67-3.25a8.22,8.22,0,0,0,2.17-.54L172.42,46l2.84-1.81-1.74-2.45a7.6,7.6,0,0,0,1.14-1.65Zm-8.43-1.27a3.25,3.25,0,0,1-4.35-.81,2.88,2.88,0,0,1,.85-4.12,3.25,3.25,0,0,1,4.35.81A2.87,2.87,0,0,1,169.47,39.46Z"></path><path class="a" d="M84.57,70.73l.66-3.18L82.09,67a6.94,6.94,0,0,0-.42-2.33L84.26,63,82.35,60.3l-2.48,1.58a7.49,7.49,0,0,0-2.54-1.62l.62-3-3.36-.62L74,59.73a8,8,0,0,0-2,.37l-1.74-2.45-2.84,1.8L69,61.8a7.32,7.32,0,0,0-1.72,2.41l-2.75-.51-.65,3.18,2.84.53a6.9,6.9,0,0,0,.61,2.45l-2.48,1.58,1.9,2.69,2.59-1.65a8.11,8.11,0,0,0,2.51,1.38l-.63,3,3.36.63.67-3.25a8,8,0,0,0,2.18-.55L79.09,76l2.84-1.8-1.74-2.46a7,7,0,0,0,1.14-1.64Zm-8.43-1.27a3.25,3.25,0,0,1-4.35-.81,2.88,2.88,0,0,1,.86-4.12,3.24,3.24,0,0,1,4.35.81A2.88,2.88,0,0,1,76.14,69.46Z"></path><path class="a" d="M190.94,25.19l.36-1.74-1.72-.32a3.79,3.79,0,0,0-.23-1.27l1.42-.9-1.05-1.47-1.35.86a4.32,4.32,0,0,0-1.39-.88l.33-1.63-1.83-.34-.35,1.68a4.25,4.25,0,0,0-1.11.2l-1-1.34-1.56,1,.91,1.28a3.87,3.87,0,0,0-.93,1.32l-1.5-.28-.37,1.74,1.56.29a3.82,3.82,0,0,0,.33,1.34l-1.36.86,1,1.47,1.41-.9a4.46,4.46,0,0,0,1.37.75l-.34,1.64,1.84.34.36-1.78a4.41,4.41,0,0,0,1.19-.29l.91,1.28,1.55-1-1-1.34a4,4,0,0,0,.63-.9Zm-4.61-.7a1.77,1.77,0,0,1-2.38-.44,1.56,1.56,0,0,1,.47-2.25,1.78,1.78,0,0,1,2.38.44A1.58,1.58,0,0,1,186.33,24.49Z"></path><path class="b" d="M279.4,39.75a3.79,3.79,0,1,1,4-3.78A3.9,3.9,0,0,1,279.4,39.75Zm0-6.38a2.6,2.6,0,1,0,2.74,2.6A2.68,2.68,0,0,0,279.4,33.37Z"></path><path class="b" d="M291.06,24.23a3.9,3.9,0,0,1-4-3.79,4,4,0,0,1,8,0A3.9,3.9,0,0,1,291.06,24.23Zm0-6.38a2.6,2.6,0,1,0,2.74,2.59A2.67,2.67,0,0,0,291.06,17.85Z"></path><path class="c" d="M296,36.51a.61.61,0,0,1-.63-.59V33.31a.63.63,0,0,1,1.25,0v2.61A.6.6,0,0,1,296,36.51Z"></path><path class="c" d="M296,41.09a.61.61,0,0,1-.63-.59V37.88a.63.63,0,0,1,1.25,0V40.5A.6.6,0,0,1,296,41.09Z"></path><path class="c" d="M299.87,37.5h-2.48a.61.61,0,0,1-.62-.6.6.6,0,0,1,.62-.59h2.48a.61.61,0,0,1,.63.59A.62.62,0,0,1,299.87,37.5Z"></path><path class="c" d="M294.6,37.5h-2.48a.62.62,0,0,1-.63-.6.61.61,0,0,1,.63-.59h2.48a.61.61,0,0,1,.63.59A.62.62,0,0,1,294.6,37.5Z"></path><path class="d" d="M274.9,20.67a.62.62,0,0,1-.63-.6V17.46a.63.63,0,0,1,1.26,0v2.61A.62.62,0,0,1,274.9,20.67Z"></path><path class="d" d="M274.9,25.24a.61.61,0,0,1-.63-.59V22a.63.63,0,0,1,1.26,0v2.61A.61.61,0,0,1,274.9,25.24Z"></path><path class="d" d="M278.78,21.65H276.3a.6.6,0,1,1,0-1.19h2.48a.6.6,0,1,1,0,1.19Z"></path><path class="d" d="M273.5,21.65H271a.6.6,0,1,1,0-1.19h2.48a.6.6,0,1,1,0,1.19Z"></path><path class="b" d="M124,5.14a4,4,0,0,1,8,0,4,4,0,0,1-8,0Zm1.25,0a2.75,2.75,0,0,0,5.49,0,2.75,2.75,0,0,0-5.49,0Z"></path><path class="c" d="M115.5,18.5a4,4,0,0,1,8,0,4,4,0,0,1-8,0Zm1.25,0a2.75,2.75,0,1,0,2.75-2.59A2.67,2.67,0,0,0,116.75,18.5Z"></path><path class="b" d="M112.77,28.8a.62.62,0,0,0,.63-.6V25.59a.63.63,0,0,0-1.25,0V28.2A.61.61,0,0,0,112.77,28.8Z"></path><path class="b" d="M112.77,33.38a.62.62,0,0,0,.63-.6V30.17a.63.63,0,0,0-1.25,0v2.61A.61.61,0,0,0,112.77,33.38Z"></path><path class="b" d="M108.9,29.78h2.48a.6.6,0,1,0,0-1.19H108.9a.6.6,0,1,0,0,1.19Z"></path><path class="b" d="M114.17,29.78h2.48a.6.6,0,1,0,0-1.19h-2.48a.6.6,0,1,0,0,1.19Z"></path><path class="d" d="M138.27,12.79a.61.61,0,0,0,.63-.59V9.58a.63.63,0,0,0-1.25,0V12.2A.6.6,0,0,0,138.27,12.79Z"></path><path class="d" d="M138.27,17.37a.61.61,0,0,0,.63-.59V14.16a.63.63,0,0,0-1.25,0v2.62A.6.6,0,0,0,138.27,17.37Z"></path><path class="d" d="M134.4,13.77h2.48a.59.59,0,1,0,0-1.18H134.4a.59.59,0,1,0,0,1.18Z"></path><path class="d" d="M139.67,13.77h2.48a.59.59,0,1,0,0-1.18h-2.48a.59.59,0,1,0,0,1.18Z"></path><path class="d" d="M92.34,134.69l1.07,1.57,1-1.3-8.92-13.12a18.72,18.72,0,0,1,1.11-6.09c1.64-4.78,2.5-10.14-.73-9.14-2.8.86-3.56,7-2.19,12.57l-3.46-5.08a27.68,27.68,0,0,1-2.37-7.19c-1.07-6.86-3.42-13.17-6.5-10.72s1.19,13.24,8,19.39l1.78,2.61c-4.86-4.56-12.85-7.47-15.16-5.09s3.22,3.85,8.49,4.41a19.73,19.73,0,0,1,7.76,2.27l8.39,12.34c-7.71-7.2-20.34-11.78-24-8s5.1,6.11,13.46,7A31.32,31.32,0,0,1,92.34,134.69Z"></path><path class="d" d="M297.21,95.62l-1.07,1.57-1-1.3L304,82.77a18.72,18.72,0,0,0-1.11-6.09c-1.64-4.78-2.5-10.14.73-9.14,2.8.86,3.56,7,2.19,12.57L309.31,75a27.68,27.68,0,0,0,2.37-7.19c1.07-6.86,3.42-13.17,6.5-10.72s-1.19,13.24-8,19.38l-1.78,2.62c4.86-4.56,12.85-7.47,15.16-5.09s-3.22,3.85-8.49,4.41a19.73,19.73,0,0,0-7.76,2.27L299,93.05c7.71-7.2,20.34-11.78,24-8s-5.1,6.11-13.46,7A31.32,31.32,0,0,0,297.21,95.62Z"></path><path class="d" d="M108,77.88h6.61c-3.57-.56-12.43-4.16-13.22-11.38-1-9.15-4.44-9-10.23-10s-7.39.6-11.07-6.5-11.89-8-11.89-8,7.48,7.73,6,13.6,3.53,8.22,7.5,9,3,5.8,4.53,9c.69,1.48,3.51,3,6.37,4.25Z"></path><path class="e" d="M93.64,68.87a16.44,16.44,0,0,0,4.45,8.72l.27.29h.75c-.21-.22-.42-.43-.61-.64a16.07,16.07,0,0,1-4.31-8.42c-.44-4.13-3.81-6.95-10.94-9.13-4.14-1.27-5.45-6-5.46-6.1a.28.28,0,0,0-.33-.19.26.26,0,0,0-.2.32c0,.21,1.39,5.11,5.82,6.47C90,62.3,93.23,65,93.64,68.87Z"></path><path class="c" d="M104.56,77.88h13.9v0a16.32,16.32,0,0,0,.66-4c.17-4.6.25-16.17-2.89-19.13-4-3.73-11.88-5.18-10.84-10.8s.27-13.4-9.11-14.66S79.58,14,79.58,14s-3.09,11.27,5.35,19.91,5.3,9.9,3.6,18-3.71,12.59,9.16,18.8A13.85,13.85,0,0,1,104.56,77.88Z"></path><path class="d" d="M97.41,43.27c-.62,10.54,1.7,16.48,7.53,19.27,3.66,1.75,7.5,5.65,10,10.18a28.48,28.48,0,0,1,2.25,5.16h.85a28.67,28.67,0,0,0-2.37-5.52c-2.65-4.74-6.53-8.67-10.39-10.51-5.5-2.63-7.68-8.35-7.09-18.54.39-6.55-6.09-10.93-6.36-11.12a.42.42,0,0,0-.57.1.37.37,0,0,0,.1.54C91.45,32.87,97.76,37.15,97.41,43.27Z"></path><path class="d" d="M105.44,206.19l6.57-.7c-3.62-.18-12.85-2.81-14.49-9.9-2.07-9-5.48-8.51-11.35-8.84s-7.27,1.39-11.77-5.28-12.76-6.68-12.76-6.68,8.35,6.89,7.62,12.88,4.48,7.79,8.52,8.1,3.69,5.44,5.57,8.51c.86,1.4,3.85,2.62,6.84,3.54Z"></path><path class="e" d="M90.14,198.77A16.65,16.65,0,0,0,95.59,207a3.88,3.88,0,0,0,.31.26l.75-.08-.68-.56a16.35,16.35,0,0,1-5.29-7.91c-.92-4.06-4.61-6.5-12-7.91-4.26-.82-6.13-5.44-6.15-5.48a.27.27,0,0,0-.35-.16.25.25,0,0,0-.16.34c.07.2,2,4.93,6.55,5.81C85.72,192.62,89.27,194.94,90.14,198.77Z"></path><path class="c" d="M93.29,200h13.9v0a16.17,16.17,0,0,0,.66-4c.16-4.61.25-16.17-2.9-19.14C101,173.07,93.09,171.61,94.13,166s.26-13.4-9.12-14.67-16.7-15.24-16.7-15.24S65.22,147.37,73.66,156s5.29,9.91,3.59,18-3.71,12.59,9.17,18.8A13.84,13.84,0,0,1,93.29,200Z"></path><path class="d" d="M86.13,165.4c-.62,10.54,1.71,16.48,7.53,19.26,3.66,1.76,7.51,5.66,10,10.19a28,28,0,0,1,2.24,5.15h.86a28.82,28.82,0,0,0-2.38-5.51c-2.64-4.74-6.53-8.67-10.39-10.52-5.49-2.63-7.68-8.34-7.08-18.53.39-6.55-6.09-10.94-6.37-11.12a.42.42,0,0,0-.57.1.38.38,0,0,0,.1.54C80.18,155,86.49,159.28,86.13,165.4Z"></path><path class="d" d="M184.12,38.31c.58,6.95,7.52,8.14,6.18,13.42s1.26,10,6.32,10,8.79-.25,9.8,5.47,7.46,9.79,11.19,6.19l2.92-2.82c.26-.27.53-.53.79-.78l.19-.18a10.11,10.11,0,0,0,.69-14,7.06,7.06,0,0,0-5.95-2.66c-7.95.57-3.64-6-7.42-9.92-4.35-4.51-9.64-1.48-12.49-5.15C192.38,32.77,183.55,31.35,184.12,38.31Z"></path><path class="f" d="M192.41,42.94l28.12,27.65c.26-.27.53-.53.79-.78L193.24,42.19a.6.6,0,0,0-.81,0A.52.52,0,0,0,192.41,42.94Z"></path><path class="c" d="M200.41,8c-2.88,7.41,3.66,11.76-.36,16.58s-3.71,10.88,1.49,13.16,9.17,3.68,7.35,10,2.78,13.42,8.42,11.39l4.41-1.6,1.21-.44.28-.1c6-2.18,9.39-8.27,7.73-14.14a7.5,7.5,0,0,0-4.79-5.39c-8.47-3-.74-7.83-2.67-13.55-2.22-6.6-9.18-5.84-10.28-10.9C211.68,6,203.3.59,200.41,8Z"></path><path class="d" d="M206.62,16.49l15.1,41.07,1.21-.44-15.08-41a.67.67,0,0,0-.83-.38A.62.62,0,0,0,206.62,16.49Z"></path><path class="d" d="M330.88,162.22c-.58,7-7.52,8.15-6.17,13.43s-1.27,10-6.33,10-8.78-.26-9.8,5.47-7.46,9.79-11.19,6.19l-2.91-2.83-.8-.77-.19-.18a10.11,10.11,0,0,1-.68-14,7,7,0,0,1,5.94-2.65c7.95.57,3.65-6,7.42-9.92,4.35-4.52,9.64-1.48,12.49-5.15C322.63,156.69,331.46,155.27,330.88,162.22Z"></path><path class="f" d="M322.59,166.86,294.48,194.5l-.8-.77,28.09-27.62a.59.59,0,0,1,.81,0A.53.53,0,0,1,322.59,166.86Z"></path><path class="c" d="M317.91,134.17c2.88,7.42-3.66,11.76.36,16.58s3.72,10.88-1.49,13.16-9.17,3.68-7.35,10-2.77,13.42-8.41,11.39l-4.42-1.6-1.21-.44-.27-.1c-6-2.18-9.4-8.27-7.74-14.14a7.5,7.5,0,0,1,4.79-5.39c8.47-3,.75-7.82,2.67-13.55,2.22-6.6,9.18-5.84,10.28-10.9C306.64,132.18,315,126.76,317.91,134.17Z"></path><path class="d" d="M311.7,142.66l-15.1,41.07-1.21-.44,15.08-41a.67.67,0,0,1,.83-.38A.6.6,0,0,1,311.7,142.66Z"></path><path class="d" d="M243,160.18l1.08,1.57,1-1.3-8.92-13.12a18.72,18.72,0,0,1,1.11-6.09c1.64-4.78,2.5-10.14-.73-9.14-2.8.86-3.56,7-2.19,12.57l-3.46-5.08a27.68,27.68,0,0,1-2.37-7.19c-1.07-6.86-3.42-13.17-6.5-10.72s1.19,13.24,8,19.38l1.78,2.62c-4.86-4.56-12.85-7.47-15.16-5.09s3.22,3.85,8.49,4.41a19.6,19.6,0,0,1,7.75,2.27l8.4,12.34c-7.71-7.2-20.34-11.78-24-8s5.11,6.11,13.47,7A31.19,31.19,0,0,1,243,160.18Z"></path><path class="c" d="M217.83,212.44c0-2.36-.07-4.81-.11-7.3,0-1.58-.06-3.19-.09-4.79s-.07-3.25-.12-4.87c0-.35,0-.7,0-1.06-.4-15.29-1.08-29.34-2.2-30.91a17.53,17.53,0,0,0-4.68-3.64l-.78-.48c-.9-.53-8.22-2.88-9.15-3.4l-7.73-.51s-7.44,2.39-7.49,2.41l-1,.52a44.87,44.87,0,0,0-7,4.43c-.23.2-.43.39-.61.58s-.26.3-.36.44a2.38,2.38,0,0,0-.27.64c-.93,3.22-1.42,15.87-1.67,29.64,0,1,0,2,0,3,0,.44,0,.88,0,1.31s0,.61,0,.91v.45c0,.75,0,1.5,0,2.24,0,.55,0,1.1,0,1.65,0,3-.05,5.94-.06,8.77Z"></path><path class="g" d="M170.37,212.44c1.22-4.93,2.37-9.84,2.39-12.16l.67-2.16,2.47-7.9,3.86-12.37s-2.31-9.36-6.22-8.55c0,0-2.06,6.52-4.27,13.87L168.14,187c-1.57,5.33-3,10.6-3.74,13.72A89.17,89.17,0,0,0,163,212.44Z"></path><path class="h" d="M168.14,187l5.29,11.16,2.47-7.9-6.63-7.05Z"></path><path class="c" d="M167.88,183.64c2.32,3.76,4.68,7.51,7,11.26.77-2.46,1.57-4.81,2.33-7h0c.3-.87.6-1.7.88-2.5,0,0,0,0,0,0,.1-.28.2-.56.29-.83h0a57.3,57.3,0,0,0,2.24-7.25c.67-4-1.15-11.85-3.73-13.4h0c-.06.14-.27-.3-.39,0-.45,1-2.46,3.43-3.45,5.81-.13.3-.25.62-.39.94C171.26,174.1,169.51,178.65,167.88,183.64Z"></path><path class="g" d="M221.59,212.44c-1.21-4.93-2.36-9.84-2.38-12.16l-.67-2.16-2.47-7.9-3.86-12.37s2.31-9.36,6.21-8.55c0,0,2.07,6.52,4.28,13.87l1.13,3.79c1.57,5.33,3,10.6,3.74,13.72A89.17,89.17,0,0,1,229,212.44Z"></path><path class="h" d="M223.83,187l-5.29,11.16-2.47-7.9,6.63-7.05Z"></path><path class="c" d="M224.09,183.64c-2.32,3.76-4.68,7.51-7,11.26-.77-2.46-1.57-4.81-2.33-7h0c-.3-.87-.6-1.7-.88-2.5,0,0,0,0,0,0-.1-.28-.2-.56-.29-.83h0a55.66,55.66,0,0,1-2.24-7.25c-.67-4,1.15-11.85,3.73-13.4h0c.06.14.27-.3.39,0,.45,1,2.45,3.43,3.45,5.81.12.3.25.62.39.94C220.71,174.1,222.46,178.65,224.09,183.64Z"></path><path class="d" d="M196.48,162.8c3.34,0,5.71-2.89,5.8-3a.4.4,0,1,0-.62-.52s-2.23,2.72-5.18,2.72-4.7-3-4.72-3.06a.39.39,0,0,0-.55-.15.42.42,0,0,0-.15.56C191.14,159.48,193.09,162.8,196.48,162.8Z"></path><path class="d" d="M210.64,190.53a.41.41,0,0,0,.18-.05.41.41,0,0,0,.18-.55L209.54,187a.41.41,0,0,0-.55-.18.42.42,0,0,0-.18.56l1.46,2.92A.42.42,0,0,0,210.64,190.53Z"></path><path class="d" d="M213.68,188.13a.28.28,0,0,0,.18.06.4.4,0,0,0,.44-.37l.29-3.26a.41.41,0,0,0-.37-.45.41.41,0,0,0-.44.37l-.29,3.27A.39.39,0,0,0,213.68,188.13Z"></path><path class="d" d="M205.83,183.07a.4.4,0,0,0,.4-.34l.53-3.23a.41.41,0,0,0-.33-.48.4.4,0,0,0-.47.34l-.53,3.23a.41.41,0,0,0,.34.48Z"></path><path class="d" d="M192.71,184.28a.42.42,0,0,0,.35-.63l-1.65-2.82a.4.4,0,0,0-.55-.14.42.42,0,0,0-.15.57l1.65,2.81A.42.42,0,0,0,192.71,184.28Z"></path><path class="d" d="M208.83,171.64a.43.43,0,0,0,.22-.06l2.72-1.78a.42.42,0,0,0,.12-.57.4.4,0,0,0-.56-.12l-2.72,1.77a.42.42,0,0,0-.12.57A.39.39,0,0,0,208.83,171.64Z"></path><path class="d" d="M196.73,197.9a.43.43,0,0,0,.19,0,.42.42,0,0,0,.18-.56l-1.46-2.92a.41.41,0,0,0-.55-.18.41.41,0,0,0-.18.55l1.46,2.92A.39.39,0,0,0,196.73,197.9Z"></path><path class="d" d="M203.15,173.84a.42.42,0,0,0,.35-.19.43.43,0,0,0-.13-.57l-2.75-1.74a.41.41,0,0,0-.56.13.42.42,0,0,0,.13.57l2.74,1.74A.46.46,0,0,0,203.15,173.84Z"></path><path class="d" d="M209.67,161.69a.33.33,0,0,0,.05.22.4.4,0,0,0,.33.22.4.4,0,0,0,.43-.38l.13-1.88-.78-.47Z"></path><path class="d" d="M213.32,179.62a.41.41,0,0,0,.22-.76l-2.74-1.74a.41.41,0,0,0-.56.13.42.42,0,0,0,.13.57l2.74,1.74A.42.42,0,0,0,213.32,179.62Z"></path><path class="d" d="M191.46,165.36a.39.39,0,0,0,.23-.07.41.41,0,0,0,.11-.57l-1.56-2.4a.41.41,0,0,0-.57-.12.41.41,0,0,0-.11.57l1.56,2.4A.39.39,0,0,0,191.46,165.36Z"></path><path class="d" d="M190.06,206.86a.4.4,0,0,0,.29-.12l2.24-2.37a.41.41,0,0,0,0-.58.4.4,0,0,0-.57,0l-2.24,2.36a.42.42,0,0,0,0,.59A.43.43,0,0,0,190.06,206.86Z"></path><path class="d" d="M198.29,206.37a.39.39,0,0,0,.3-.13l2.24-2.36a.41.41,0,0,0,0-.58.4.4,0,0,0-.57,0L198,205.67a.42.42,0,0,0,0,.59A.43.43,0,0,0,198.29,206.37Z"></path><path class="d" d="M207.14,204.36a.54.54,0,0,0,.21-.05.43.43,0,0,0,.15-.57l-1.62-2.83a.41.41,0,1,0-.71.41l1.62,2.84A.41.41,0,0,0,207.14,204.36Z"></path><path class="d" d="M202.39,197.28a.42.42,0,0,0,.36-.23l1.48-2.91a.41.41,0,1,0-.72-.38L202,196.67a.41.41,0,0,0,.17.56A.41.41,0,0,0,202.39,197.28Z"></path><path class="d" d="M215.27,196.85a.36.36,0,0,0,.16.11.41.41,0,0,0,.42-.06l1.66-1.42c0-.35,0-.7,0-1.06l-2.17,1.85A.42.42,0,0,0,215.27,196.85Z"></path><path class="d" d="M202.41,166.39a.4.4,0,0,0,.36-.22l1.48-2.91a.41.41,0,1,0-.72-.38l-1.48,2.91a.41.41,0,0,0,.17.56A.43.43,0,0,0,202.41,166.39Z"></path><path class="d" d="M192.9,177.06H193a.4.4,0,0,0,.32-.48l-.61-3.22a.41.41,0,1,0-.8.16l.61,3.21A.41.41,0,0,0,192.9,177.06Z"></path><path class="d" d="M198.2,179.88h.07a.42.42,0,0,0,.33-.48l-.62-3.21a.4.4,0,0,0-.47-.33.41.41,0,0,0-.33.48l.62,3.22A.4.4,0,0,0,198.2,179.88Z"></path><path class="d" d="M194.4,169.27a.42.42,0,0,0,.35-.19l1.73-2.77a.41.41,0,1,0-.69-.44l-1.73,2.77a.42.42,0,0,0,.13.57A.39.39,0,0,0,194.4,169.27Z"></path><path class="d" d="M210.3,197.79a.41.41,0,0,0,.08-.46l-1.4-3a.4.4,0,0,0-.54-.19.41.41,0,0,0-.19.55l1.39,3a.4.4,0,0,0,.54.2Z"></path><path class="d" d="M199.82,189.21a.41.41,0,0,0,.38-.26l1.18-3a.42.42,0,0,0-.23-.54.41.41,0,0,0-.53.24l-1.18,3.05a.41.41,0,0,0,.23.53Z"></path><path class="d" d="M186.87,208.05a.39.39,0,0,0,.18,0,.43.43,0,0,0,.18-.56l-1.46-2.92a.4.4,0,0,0-.55-.18.41.41,0,0,0-.18.55l1.46,2.92A.42.42,0,0,0,186.87,208.05Z"></path><path class="d" d="M181.57,200.6a.42.42,0,0,0,.4-.35l.53-3.23a.42.42,0,0,0-.34-.47.41.41,0,0,0-.47.34l-.52,3.23a.41.41,0,0,0,.33.47Z"></path><path class="d" d="M181.23,176.75a.54.54,0,0,0,.21-.05.42.42,0,0,0,.14-.57l-1.65-2.82a.4.4,0,0,0-.55-.14.41.41,0,0,0-.15.56l1.65,2.82A.41.41,0,0,0,181.23,176.75Z"></path><path class="d" d="M186.53,188.21a.36.36,0,0,0,.22-.07l2.72-1.78a.41.41,0,0,0-.45-.69l-2.71,1.78a.41.41,0,0,0-.12.57A.4.4,0,0,0,186.53,188.21Z"></path><path class="d" d="M215.29,207.42a.39.39,0,0,0,.18,0,.42.42,0,0,0,.18-.56l-1.46-2.92a.41.41,0,1,0-.73.37l1.46,2.93A.41.41,0,0,0,215.29,207.42Z"></path><path class="d" d="M181.9,192.65a.41.41,0,0,0,.22-.76l-2.74-1.74a.4.4,0,0,0-.56.13.42.42,0,0,0,.12.57l2.75,1.74A.39.39,0,0,0,181.9,192.65Z"></path><path class="d" d="M188.47,196.78a.4.4,0,0,0,.39.1.41.41,0,0,0,.28-.51l-.84-3.16a.41.41,0,0,0-.5-.29.42.42,0,0,0-.29.51l.85,3.16A.4.4,0,0,0,188.47,196.78Z"></path><path class="d" d="M176.9,163.42l.71,1.09a.41.41,0,0,0,.35.18.46.46,0,0,0,.22-.06.41.41,0,0,0,.11-.57l-.78-1.22C177.28,163,177.08,163.23,176.9,163.42Z"></path><path class="d" d="M173.8,170.61l.76,1.16a.41.41,0,0,0,.34.18.36.36,0,0,0,.22-.07.42.42,0,0,0,.12-.57l-1.07-1.64C174.05,170,173.93,170.29,173.8,170.61Z"></path><path class="d" d="M204.37,212.44l2.16-2.27a.42.42,0,0,0,0-.59.41.41,0,0,0-.58,0L203.7,212a.43.43,0,0,0-.06.48Z"></path><path class="d" d="M194,212.44h1.26l-1.35-1.15a.4.4,0,0,0-.58.05.39.39,0,0,0-.09.29.47.47,0,0,0,.14.29Z"></path><path class="d" d="M180.07,212.44l.4-.77a.42.42,0,0,0-.18-.56.4.4,0,0,0-.55.18l-.59,1.15Z"></path><path class="d" d="M183,181.75a.42.42,0,0,0,.37-.22l1.48-2.91a.42.42,0,0,0-.18-.56.41.41,0,0,0-.55.18l-1.48,2.91a.41.41,0,0,0,.18.55A.31.31,0,0,0,183,181.75Z"></path><path class="d" d="M181.42,169.53h.08a.41.41,0,0,0,.32-.49l-.61-3.21a.41.41,0,1,0-.8.15l.61,3.22A.41.41,0,0,0,181.42,169.53Z"></path><path class="d" d="M174,180.63h.07a.42.42,0,0,0,.33-.48l-.62-3.21a.4.4,0,0,0-.47-.33.41.41,0,0,0-.33.48l.62,3.22A.39.39,0,0,0,174,180.63Z"></path><path class="d" d="M186.72,172.36h.07a.42.42,0,0,0,.33-.48l-.62-3.22a.41.41,0,0,0-.47-.33.42.42,0,0,0-.33.49l.62,3.21A.4.4,0,0,0,186.72,172.36Z"></path><path class="d" d="M184.29,161.16a.41.41,0,0,0,.22,0,.42.42,0,0,0,.27-.29l.68-2.95-1,.52-.52,2.24A.43.43,0,0,0,184.29,161.16Z"></path><path class="d" d="M175,185.6a.4.4,0,0,0,.35-.19l1.73-2.76a.42.42,0,0,0-.13-.57.4.4,0,0,0-.56.13L174.62,185a.42.42,0,0,0,.12.57A.46.46,0,0,0,175,185.6Z"></path><path class="d" d="M184.57,212.44h.9l-.26-.54a.4.4,0,0,0-.54-.2.42.42,0,0,0-.19.55Z"></path><path class="d" d="M176.05,206.74a.41.41,0,0,0,.38-.27l1.18-3.05a.41.41,0,0,0-.23-.53.4.4,0,0,0-.53.23l-1.18,3a.42.42,0,0,0,.23.54Z"></path><path class="d" d="M174.55,197.11c.77-3,1.73-6.32,2.68-9.19h0c.3-.89.59-1.73.88-2.5,0,0,0,0,0,0,.09-.25.18-.48.27-.71a.5.5,0,0,0,0-.12h0a.34.34,0,0,0-.23-.32.38.38,0,0,0-.47.21c-1,2.52-2.13,6.15-3.12,9.71C174.58,195.13,174.57,196.12,174.55,197.11Z"></path><path class="i" d="M185.83,138.54s-2.94-3.07-1.83-6.65a4.54,4.54,0,0,1,4.15-3.53s1.77-3.81,4.8-3.93,5.87-5.21,8.62-3.83-.3,4.39-.3,4.39,4.71-4.7,6.26-3.32-2.15,5.08-2.15,5.08,4-2.64,5.26-1.63-3.11,5.33-3.11,5.33,2.85,4.86,0,7Z"></path><path class="h" d="M206.41,139.57s1.88-2.38,3.29-.41-.58,7.78-4,6.36Z"></path><path class="j" d="M206.44,143.72a.28.28,0,0,0,.27-.2,4.37,4.37,0,0,1,2.52-2.52.27.27,0,0,0,.16-.36.29.29,0,0,0-.37-.16,4.91,4.91,0,0,0-2.86,2.89.26.26,0,0,0,.2.34Z"></path><path class="j" d="M208.42,142.82a.28.28,0,0,0,.15,0,.26.26,0,0,0,.09-.38,2.58,2.58,0,0,0-1.09-.83.29.29,0,0,0-.38.14.27.27,0,0,0,.14.36,2.07,2.07,0,0,1,.84.62A.29.29,0,0,0,208.42,142.82Z"></path><path class="h" d="M187,139.57s-1.88-2.38-3.28-.41.58,7.78,4,6.36Z"></path><path class="j" d="M187,143.72a.28.28,0,0,1-.28-.2,4.34,4.34,0,0,0-2.52-2.52.27.27,0,0,1-.16-.36.29.29,0,0,1,.37-.16,4.91,4.91,0,0,1,2.86,2.89.26.26,0,0,1-.2.34Z"></path><path class="j" d="M185,142.82a.29.29,0,0,1-.16,0,.27.27,0,0,1-.09-.38,2.58,2.58,0,0,1,1.09-.83.29.29,0,0,1,.38.14.27.27,0,0,1-.14.36,2.07,2.07,0,0,0-.84.62A.28.28,0,0,1,185,142.82Z"></path><path class="g" d="M192.07,150.44v5.78s1.82,2.94,4.28,3.14,4.64-2.53,4.64-2.53v-6Z"></path><path class="h" d="M192.07,150.44V153c1.65,1.73,4.58,2.16,8.92,1.56v-3.72Z"></path><path class="g" d="M185.64,135.61a53.23,53.23,0,0,0,.79,7.3h0v0h0c.11.55.23,1.06.37,1.52.08.28.17.56.27.85,1.45,4.3,4.8,10.51,13.21,7.67,3.55-1.2,5.4-4.66,6.34-8.42q.08-.34.15-.66l.09-.42,0-.2a.26.26,0,0,0,0-.07v0a38.68,38.68,0,0,0,.59-7.9,6,6,0,0,0-3.23-5.13c-5.3-2.85-10.9-1.79-14.59-.45A6,6,0,0,0,185.64,135.61Z"></path><path class="i" d="M186.43,142.91h0v0h0c.05.19.35,1.21.64,2.37,1.45,4.3,4.8,10.51,13.21,7.67,3.55-1.2,5.4-4.66,6.34-8.42q.08-.34.15-.66l.09-.42,0-.2a.26.26,0,0,0,0-.07v0l-1.24-.23a8.63,8.63,0,0,1-1.41,3.08c-1-2.37-6.36-.8-6.36-.8h0a3.4,3.4,0,0,1-1,.15,3.51,3.51,0,0,1-1-.16s-5.25-1.64-6.34.62a30.8,30.8,0,0,1-1.83-3l-1.29.09Zm10.46,3.41c6-.77,5.07,2.3,5.07,2.3a10.59,10.59,0,0,1-1.69,1.21,7.27,7.27,0,0,1-3.54.91c-.92,0-1.17.14-3.51-1.05a5.94,5.94,0,0,1-1.23-.89h0C191.89,148.2,190.87,145.34,196.89,146.32Z"></path><path class="i" d="M191.45,139.79c0,.61.33,1.11.75,1.11s.75-.5.75-1.11-.34-1.12-.75-1.12S191.45,139.17,191.45,139.79Z"></path><path class="i" d="M200.82,139.79c0,.61.33,1.11.75,1.11s.75-.5.75-1.11-.34-1.12-.75-1.12S200.82,139.17,200.82,139.79Z"></path><path class="i" d="M189.53,136s3.1-1.15,5.48-.18l-.24,1.26s-3.5-.28-5.26.39A2.07,2.07,0,0,1,189.53,136Z"></path><path class="i" d="M204.25,136s-3.12-1.17-5.52-.18l.24,1.26s3.53-.28,5.3.4A2,2,0,0,0,204.25,136Z"></path><path class="h" d="M196.6,144.78a3.15,3.15,0,0,1-1-.21.27.27,0,0,1-.16-.36.29.29,0,0,1,.37-.15,1.82,1.82,0,0,0,1.17.1.29.29,0,0,0,.14-.25,38.3,38.3,0,0,0-.18-4.2.29.29,0,0,1,.27-.3.28.28,0,0,1,.31.25,38.85,38.85,0,0,1,.18,4.31.87.87,0,0,1-.43.67A1.3,1.3,0,0,1,196.6,144.78Z"></path><path class="k" d="M200.3,146.87a3.38,3.38,0,0,1-3.42,3,3.26,3.26,0,0,1-3.4-3Z"></path><path class="i" d="M185.64,135.61a53.23,53.23,0,0,0,.79,7.3l1.29-.09s-.31-1.9-.45-3.13-.4-3.54.72-3.83.46-2.92,2-4.06a7.55,7.55,0,0,1,7.28-.13c2.27,1.32,4.84-.1,5.89.13s2.48,1.6,2.09,2.88.77,2.06,1.05,3.38-.61,4.9-.61,4.9l1.23.23a38.06,38.06,0,0,0,.6-7.9,6,6,0,0,0-3.23-5.13c-5.3-2.85-10.9-1.79-14.59-.45A6,6,0,0,0,185.64,135.61Z"></path><path class="d" d="M310.85,216.41v.39a4.09,4.09,0,0,1-4.2,4H88.94a4.08,4.08,0,0,1-4.19-4v-.39a4.08,4.08,0,0,1,4.19-4H306.65A4.09,4.09,0,0,1,310.85,216.41Z"></path><path class="c" d="M310.85,216.41v.2H84.75v-.2a4.08,4.08,0,0,1,4.19-4H306.65A4.09,4.09,0,0,1,310.85,216.41Z"></path><path class="l" d="M234.07,164.46v31.73a4,4,0,0,1-4.09,3.87H163.86a4,4,0,0,1-4.1-3.87V164.46a4,4,0,0,1,4.1-3.88H230A4,4,0,0,1,234.07,164.46Z"></path><path class="i" d="M234.07,166.59v29.6a4,4,0,0,1-4.09,3.87H163.86a4,4,0,0,1-4.1-3.87v-29.6a4,4,0,0,1,4.1-3.88H230A4,4,0,0,1,234.07,166.59Z"></path><rect class="m" x="191.16" y="200.02" width="11.51" height="12.42"></rect><ellipse class="l" cx="196.79" cy="180.81" rx="5.71" ry="5.41"></ellipse><path class="i" d="M185.81,208h21.85a3.92,3.92,0,0,1,3.92,3.92v.49a0,0,0,0,1,0,0H181.89a0,0,0,0,1,0,0v-.49A3.92,3.92,0,0,1,185.81,208Z"></path><rect class="l" x="103.22" y="39.68" width="60.06" height="86.03" rx="3.08" transform="translate(215.94 -50.55) rotate(90)"></rect><path class="k" d="M172.28,58.82v47.75a2.46,2.46,0,0,1-2.52,2.39h-73a2.46,2.46,0,0,1-2.52-2.39V58.82a2.43,2.43,0,0,1,2.19-2.37,1.83,1.83,0,0,1,.33,0h73a1.83,1.83,0,0,1,.33,0A2.43,2.43,0,0,1,172.28,58.82Z"></path><path class="a" d="M116.53,71.78H99.13a1.41,1.41,0,0,1-1.44-1.36h0a1.41,1.41,0,0,1,1.44-1.37h17.4A1.41,1.41,0,0,1,118,70.42h0A1.41,1.41,0,0,1,116.53,71.78Z"></path><path class="a" d="M116.53,77.43H99.13a1.41,1.41,0,0,1-1.44-1.37h0a1.41,1.41,0,0,1,1.44-1.37h17.4A1.41,1.41,0,0,1,118,76.06h0A1.41,1.41,0,0,1,116.53,77.43Z"></path><path class="a" d="M116.53,83.07H99.13a1.41,1.41,0,0,1-1.44-1.37h0a1.41,1.41,0,0,1,1.44-1.36h17.4A1.41,1.41,0,0,1,118,81.7h0A1.41,1.41,0,0,1,116.53,83.07Z"></path><path class="a" d="M116.53,88.71H99.13a1.41,1.41,0,0,1-1.44-1.37h0A1.41,1.41,0,0,1,99.13,86h17.4A1.41,1.41,0,0,1,118,87.34h0A1.41,1.41,0,0,1,116.53,88.71Z"></path><path class="a" d="M167.59,85.76H150.2a1.41,1.41,0,0,1-1.45-1.37h0A1.41,1.41,0,0,1,150.2,83h17.39A1.41,1.41,0,0,1,169,84.39h0A1.41,1.41,0,0,1,167.59,85.76Z"></path><path class="a" d="M167.59,91.4H150.2A1.41,1.41,0,0,1,148.75,90h0a1.41,1.41,0,0,1,1.45-1.36h17.39A1.41,1.41,0,0,1,169,90h0A1.41,1.41,0,0,1,167.59,91.4Z"></path><path class="a" d="M167.59,97H150.2a1.41,1.41,0,0,1-1.45-1.36h0a1.41,1.41,0,0,1,1.45-1.37h17.39A1.41,1.41,0,0,1,169,95.68h0A1.41,1.41,0,0,1,167.59,97Z"></path><path class="a" d="M167.59,102.68H150.2a1.41,1.41,0,0,1-1.45-1.36h0A1.41,1.41,0,0,1,150.2,100h17.39a1.41,1.41,0,0,1,1.44,1.37h0A1.41,1.41,0,0,1,167.59,102.68Z"></path><path class="a" d="M172.28,58.82v5.65H94.21V58.74a2.39,2.39,0,0,1,.09-.66,2.5,2.5,0,0,1,1.6-1.63h74.19A2.43,2.43,0,0,1,172.28,58.82Z"></path><path class="k" d="M157,59.68H111.47a1.12,1.12,0,0,0-1.13.89,1.07,1.07,0,0,0,1.09,1.21H157a1.08,1.08,0,0,0,1.11-1.05h0A1.08,1.08,0,0,0,157,59.68Z"></path><path class="n" d="M101.12,60.73v.78a.31.31,0,0,1-.46.25l-.71-.39L99.24,61a.28.28,0,0,1,0-.5l.71-.39.71-.39a.31.31,0,0,1,.46.25Z"></path><path class="n" d="M104.82,60.73v.78a.31.31,0,0,0,.46.25l.71-.39.71-.39a.28.28,0,0,0,0-.5l-.71-.39-.71-.39a.31.31,0,0,0-.46.25Z"></path><path class="c" d="M108,109c2.54-10.72,7.21-21.45,7.84-25.19s-.24-12.13-2.73-13.62c-1.75.87-3,3.13-3.72,4.87a153.9,153.9,0,0,0-8.56,24.1c-.81,3.3-1.51,6.3-2.1,9.84Z"></path><path class="c" d="M152.19,109l-.06-2.89c-.35-16.82-1-33.9-2.26-35.61s-4.65-3.68-8-5.54l-1.25-.7-.3-.16-1.09-.6c-1.61-.88-3-1.67-3.85-2.27v.46s-1.82,2.45-3.87,2.27c-1.87-.16-2.89-2.36-3.13-2.75a35.85,35.85,0,0,1-3.57,2l-1.13.59-.36.19-.28.15c-4.17,2.16-9.18,4.77-10.53,6.65-1.06,1.47-1.6,14.43-1.86,28.75,0,1.17,0,2.36-.06,3.54l0,2c0,1.29,0,2.59,0,3.88Z"></path><path class="c" d="M118.46,71.78s-7.15-7.89-2.18-13.49S133.1,53.2,137,53.77s15.31,7,7.15,16.11S118.46,71.78,118.46,71.78Z"></path><path class="d" d="M119.91,102.05a28.93,28.93,0,0,0,13.72,5.4.37.37,0,0,0,.43-.36h0a.36.36,0,0,0-.32-.35,28.23,28.23,0,0,1-13.37-5.26.37.37,0,0,0-.6.28h0A.32.32,0,0,0,119.91,102.05Z"></path><path class="d" d="M121.46,97.51v0a.32.32,0,0,0,0,.16c.2.32.42.65.67,1a15,15,0,0,0,8.6,5.52h.09a.35.35,0,0,0,.33-.24.32.32,0,0,0-.24-.4,14.1,14.1,0,0,1-8.85-6.22A.35.35,0,0,0,121.46,97.51Z"></path><path class="d" d="M136.37,69.9a25.65,25.65,0,0,1-7.61,4.9.32.32,0,0,0-.21.3h0a.34.34,0,0,0,.48.3,25.14,25.14,0,0,0,4.83-2.61,27.07,27.07,0,0,0,3-2.42.35.35,0,0,0,.1-.24h0A.35.35,0,0,0,136.37,69.9Z"></path><path class="k" d="M126.4,100.17a.3.3,0,0,1-.3-.28c-.32-13.75,0-27.69,0-27.83a.3.3,0,0,1,.3-.28h0a.31.31,0,0,1,.3.3c0,.14-.33,14.06,0,27.8a.29.29,0,0,1-.3.29Z"></path><path class="k" d="M137.83,100.17h0a.28.28,0,0,1-.29-.29c.32-13.74,0-27.66,0-27.8a.29.29,0,0,1,.29-.3h0a.3.3,0,0,1,.3.28c0,.14.32,14.08,0,27.83A.29.29,0,0,1,137.83,100.17Z"></path><path class="i" d="M142.49,44.18c0,6-3.92,10.19-10.29,10.19s-10.81-4.47-10.81-10.5,3.77-10.6,10.14-10.6C139.17,33.27,142.49,38.15,142.49,44.18Z"></path><path class="i" d="M122.22,48.15a4.86,4.86,0,0,1-3.16-3.23c-.8-2.63,1.07-1.3,1.39-3.59s-2.38-4,0-5.09,1-3.48,3-4.72,5.18,1,7.19-.86,6.09-1.43,7.25,0,1.66,1.08,3.83,1.46,3.17,3.72,2.11,5.26-.32,2.57.69,3.53.31,7.49-3.16,6.58S122.22,48.15,122.22,48.15Z"></path><path class="h" d="M141.06,46.78s1.77-2.23,3.09-.39-.55,7.31-3.77,6Z"></path><path class="j" d="M141.08,50.68a.28.28,0,0,0,.27-.19,4.07,4.07,0,0,1,2.36-2.37.25.25,0,0,0,.15-.34.28.28,0,0,0-.35-.15,4.65,4.65,0,0,0-2.69,2.72.26.26,0,0,0,.19.32Z"></path><path class="j" d="M142.94,49.83a.26.26,0,0,0,.15,0,.25.25,0,0,0,.08-.36,2.43,2.43,0,0,0-1-.78.29.29,0,0,0-.36.13.25.25,0,0,0,.14.34,2.13,2.13,0,0,1,.79.59A.25.25,0,0,0,142.94,49.83Z"></path><path class="h" d="M122.82,46.78s-1.77-2.23-3.08-.39.54,7.31,3.76,6Z"></path><path class="j" d="M122.8,50.68a.26.26,0,0,1-.26-.19,4.12,4.12,0,0,0-2.36-2.37.25.25,0,0,1-.16-.34.28.28,0,0,1,.35-.15,4.62,4.62,0,0,1,2.69,2.72.26.26,0,0,1-.19.32Z"></path><path class="j" d="M120.94,49.83a.28.28,0,0,1-.15,0,.25.25,0,0,1-.08-.36,2.43,2.43,0,0,1,1-.78.29.29,0,0,1,.36.13.25.25,0,0,1-.14.34,2,2,0,0,0-.78.59A.28.28,0,0,1,120.94,49.83Z"></path><path class="g" d="M127.58,57v5.43s1.71,2.77,4,3S136,63,136,63V57.38Z"></path><path class="h" d="M127.58,57V59.4c1.56,1.63,4.31,2,8.39,1.47V57.38Z"></path><path class="g" d="M142,46.61a30.7,30.7,0,0,1-.47,3.57c-.77,4-2.5,7.93-6.23,9.2-8.44,2.85-11.46-4-12.67-8-.13-.45-.25-.94-.35-1.47-.2-.95-.34-2-.46-3.08-.14-1.3-.23-2.62-.29-3.77a5.64,5.64,0,0,1,3.82-5.54c3.46-1.26,8.72-2.26,13.71.42a5.61,5.61,0,0,1,3,4.82C142.13,43.84,142.11,45.17,142,46.61Z"></path><path class="i" d="M135.56,47.49c0,.58.32,1,.71,1s.7-.47.7-1-.31-1.05-.7-1.05S135.56,46.91,135.56,47.49Z"></path><path class="i" d="M127.26,47.47c0,.58.32,1.05.71,1.05s.7-.47.7-1.05-.32-1-.7-1S127.26,46.89,127.26,47.47Z"></path><path class="i" d="M139.06,44.53a7.65,7.65,0,0,0-4.78-.16l.21,1.09a14.1,14.1,0,0,1,4.59.35A1.77,1.77,0,0,0,139.06,44.53Z"></path><path class="i" d="M125.64,44.53a7.65,7.65,0,0,1,4.78-.16l-.21,1.09a14.1,14.1,0,0,0-4.59.35A1.88,1.88,0,0,1,125.64,44.53Z"></path><path class="h" d="M131.85,51.55a3,3,0,0,1-1-.2.25.25,0,0,1-.15-.33.28.28,0,0,1,.36-.15,1.64,1.64,0,0,0,1.09.1.26.26,0,0,0,.13-.24,37.54,37.54,0,0,0-.16-3.95.26.26,0,0,1,.25-.27.25.25,0,0,1,.29.23,35.17,35.17,0,0,1,.16,4,.75.75,0,0,1-.39.62A1.22,1.22,0,0,1,131.85,51.55Z"></path><path class="k" d="M135.56,53.44a3.42,3.42,0,0,1-3.45,3,3.29,3.29,0,0,1-3.44-3Z"></path><path class="i" d="M121.83,46.83h1.23c-.13-1.18-.33-3.24.69-3.54,3.21-.93-1-3.09.5-4.16s5.06-.61,7.57-.69a57.76,57.76,0,0,1,7.58.17c1,.22.45,1.77.09,3s1.21,2.54,1.47,3.78a5.11,5.11,0,0,1,0,1.47h1c.12-1.52.14-2.93.12-4.07a5.64,5.64,0,0,0-3-4.83c-5-2.67-10.24-1.67-13.71-.41a5.65,5.65,0,0,0-3.82,5.54C121.6,44.21,121.69,45.53,121.83,46.83Z"></path><path class="c" d="M150.19,71.78s15,11.72,20.65,16.62a35.25,35.25,0,0,0,7.41-6.23c3.75-4.28,4.93-5.43,6.44-7.19l4.93,2.43S178.75,98.54,170.8,97.24,150,83.41,150,83.41Z"></path><path class="g" d="M195.82,66.77c-.49,0-1.5,1.34-2.36,2.68l-.16-.08c1-1.93,2.49-5.29,1.41-5.23-.71,0-2.11,2.88-2.91,4.61l-.3-.11c.92-2.07,2.56-6.15,1.34-6-.82.09-2.3,3.66-3,5.51l-.27-.07c.7-1.79,1.91-5.26.69-5.13s-2.66,5.56-2.66,5.56h0l-.84,2s-.76-.18-.87-1.77-1-2.52-1.41-.62c-.43,2.14-.1,4.14-.46,5.62a3.08,3.08,0,0,0,.31,1.93,4.08,4.08,0,0,0,1.44,1.62h0a4,4,0,0,0,5.19-.71c1.45-1.73,3.12-4,3.57-5.9h0C195.56,68.93,196.68,66.81,195.82,66.77Z"></path><rect class="l" x="216.99" y="30.28" width="70.28" height="100.67" rx="3.08" transform="translate(332.75 -171.51) rotate(90)"></rect><path class="k" d="M297.81,52.27V109a2.46,2.46,0,0,1-2.52,2.39H209a2.46,2.46,0,0,1-2.52-2.39V52.27a2.37,2.37,0,0,1,.09-.65,2.46,2.46,0,0,1,1.6-1.6,2.54,2.54,0,0,1,.83-.14h86.32a2.54,2.54,0,0,1,.83.14,2.46,2.46,0,0,1,1.6,1.6A2.37,2.37,0,0,1,297.81,52.27Z"></path><rect class="a" x="210.73" y="93.76" width="81.55" height="6.08" rx="3.04"></rect><path class="a" d="M229.57,65.35H212.18A1.41,1.41,0,0,1,210.73,64h0a1.41,1.41,0,0,1,1.45-1.37h17.39A1.41,1.41,0,0,1,231,64h0A1.41,1.41,0,0,1,229.57,65.35Z"></path><path class="a" d="M229.57,71H212.18a1.41,1.41,0,0,1-1.45-1.36h0a1.41,1.41,0,0,1,1.45-1.37h17.39A1.41,1.41,0,0,1,231,69.63h0A1.41,1.41,0,0,1,229.57,71Z"></path><path class="a" d="M229.57,76.64H212.18a1.42,1.42,0,0,1-1.45-1.37h0a1.42,1.42,0,0,1,1.45-1.37h17.39A1.41,1.41,0,0,1,231,75.27h0A1.41,1.41,0,0,1,229.57,76.64Z"></path><path class="a" d="M229.57,82.28H212.18a1.41,1.41,0,0,1-1.45-1.37h0a1.41,1.41,0,0,1,1.45-1.36h17.39A1.41,1.41,0,0,1,231,80.91h0A1.41,1.41,0,0,1,229.57,82.28Z"></path><path class="a" d="M290.84,65.35H273.45A1.4,1.4,0,0,1,272,64h0a1.4,1.4,0,0,1,1.44-1.37h17.39A1.4,1.4,0,0,1,292.28,64h0A1.4,1.4,0,0,1,290.84,65.35Z"></path><path class="a" d="M290.84,71H273.45A1.4,1.4,0,0,1,272,69.63h0a1.4,1.4,0,0,1,1.44-1.37h17.39a1.4,1.4,0,0,1,1.44,1.37h0A1.4,1.4,0,0,1,290.84,71Z"></path><path class="a" d="M290.84,76.64H273.45A1.41,1.41,0,0,1,272,75.27h0a1.41,1.41,0,0,1,1.44-1.37h17.39a1.41,1.41,0,0,1,1.44,1.37h0A1.41,1.41,0,0,1,290.84,76.64Z"></path><path class="a" d="M290.84,82.28H273.45A1.4,1.4,0,0,1,272,80.91h0a1.4,1.4,0,0,1,1.44-1.36h17.39a1.4,1.4,0,0,1,1.44,1.36h0A1.4,1.4,0,0,1,290.84,82.28Z"></path><path class="a" d="M297.81,52.18v5.73H206.45V52.18a2.46,2.46,0,0,1,.09-.67,2.5,2.5,0,0,1,1.6-1.63h88a2.5,2.5,0,0,1,1.6,1.63A2.46,2.46,0,0,1,297.81,52.18Z"></path><path class="k" d="M289.18,54v.27a.94.94,0,0,1-1,.91H223.67a1.08,1.08,0,0,1-1.11-1h0a1.08,1.08,0,0,1,1.11-1.05h64.54A.94.94,0,0,1,289.18,54Z"></path><path class="n" d="M213.36,54.16v.78a.31.31,0,0,1-.46.25l-.71-.39-.71-.38a.29.29,0,0,1,0-.51l.71-.38.71-.39a.31.31,0,0,1,.46.25Z"></path><path class="n" d="M217.06,54.16v.78a.31.31,0,0,0,.46.25l.71-.39.71-.38a.29.29,0,0,0,0-.51l-.71-.38-.71-.39a.31.31,0,0,0-.46.25Z"></path><path class="i" d="M252.76,24.1s-10.31-1-13.06,13.41-4.6,23.42-4,31.07S262.86,74.2,267,70.35,266.6,40.83,265.58,34,256.86,23.42,252.76,24.1Z"></path><path class="b" d="M236.45,93.12q.08,1.32.12,2.64a72.66,72.66,0,0,1-1.27,15.59H271a72,72,0,0,1-1.28-15.59c.07-1.88.17-3.75.3-5.57.45-6.54,1.2-12.5,1.7-17s.75-7.67.16-8.38a11.23,11.23,0,0,0-2.37-1.93,60.75,60.75,0,0,0-5.55-3l-1.11-.55c-2.29-1.13-4.41-2.14-5.62-2.9a10.31,10.31,0,0,1-4,1H253a10.31,10.31,0,0,1-4-1c-1.28.8-3.64,1.93-6.14,3.17l-1.35.67c-1.25.64-2.5,1.29-3.62,1.94-.47.27-.92.55-1.34.82a11.07,11.07,0,0,0-2.46,2c-1.19,1.42,1.23,12.44,2.16,25.91C236.36,91.61,236.41,92.36,236.45,93.12Z"></path><path class="o" d="M266.09,109.31h0c-7.53,0-14-3.28-18-6a40.58,40.58,0,0,1-7.09-6,.33.33,0,0,1,0-.48.38.38,0,0,1,.51,0,40.22,40.22,0,0,0,7,5.84c4,2.66,10.26,5.83,17.6,5.86a.35.35,0,1,1,0,.69Z"></path><path class="o" d="M261.1,105.16c-6.41-1.2-12.09-5.85-12.35-6.07a.33.33,0,0,1,0-.48.39.39,0,0,1,.52,0c.06,0,6.75,5.53,13.56,6.11a.36.36,0,0,1,.33.38.37.37,0,0,1-.4.31C262.18,105.33,261.64,105.25,261.1,105.16Z"></path><path class="o" d="M251.6,73.72a.34.34,0,0,1-.06-.68c9.18-1.65,12-7.25,12-7.3a.38.38,0,0,1,.48-.18.35.35,0,0,1,.18.46c-.11.24-2.95,6-12.51,7.69Z"></path><path class="g" d="M262.85,59.27c-2.18,3.49-6,7.06-10.82,6.26a14,14,0,0,1-9.11-6c2.5-1.24,4.86-2.37,6.14-3.17a10.31,10.31,0,0,0,4,1h.22a10.31,10.31,0,0,0,4-1C258.44,57.13,260.56,58.14,262.85,59.27Z"></path><path class="k" d="M259.09,56.66a.27.27,0,0,0-.29.27c0,.22-.1,5.42-5,5.83-4.58.37-6.48-3.77-7.06-5.5a.27.27,0,0,0-.25-.17h-.05a.26.26,0,0,0-.25.33c.63,1.77,2.62,6.06,7.29,5.9l.37,0c5.46-.44,5.56-6.31,5.56-6.37A.28.28,0,0,0,259.09,56.66Z"></path><path class="g" d="M244,40.8s-2.25-2.43-3.48-.73.51,7,3.5,5.74Z"></path><path class="h" d="M243.35,44.06a.25.25,0,0,1-.24-.18A3.77,3.77,0,0,0,241,41.67a.24.24,0,0,1-.14-.31.26.26,0,0,1,.32-.14,4.26,4.26,0,0,1,2.47,2.54.25.25,0,0,1-.18.29Z"></path><path class="h" d="M241.64,43.26a.33.33,0,0,1-.14,0,.23.23,0,0,1-.07-.33,2.24,2.24,0,0,1,.95-.71.25.25,0,0,1,.33.12.22.22,0,0,1-.13.31,1.76,1.76,0,0,0-.73.54A.26.26,0,0,1,241.64,43.26Z"></path><path class="g" d="M261.94,40.8s2.25-2.43,3.49-.73-.52,7-3.51,5.74Z"></path><path class="h" d="M262.63,44.06a.25.25,0,0,0,.24-.18A3.78,3.78,0,0,1,265,41.67a.24.24,0,0,0,.14-.31.27.27,0,0,0-.33-.14,4.23,4.23,0,0,0-2.46,2.54.24.24,0,0,0,.17.29Z"></path><path class="h" d="M264.35,43.26a.33.33,0,0,0,.13,0,.22.22,0,0,0,.07-.33,2.16,2.16,0,0,0-.95-.71.25.25,0,0,0-.33.12.23.23,0,0,0,.13.31,1.76,1.76,0,0,1,.73.54A.27.27,0,0,0,264.35,43.26Z"></path><path class="g" d="M257.26,51v5.39s-1.69,2.74-4,2.93-4.33-2.36-4.33-2.36V51.36Z"></path><path class="h" d="M257.26,51v2.39C255.72,55,253,55.56,248.94,55V51.36Z"></path><path class="g" d="M263.27,37.14a50.66,50.66,0,0,1-.74,6.8c-.11.53-.23,1-.36,1.46-1.2,4-4.19,10.78-12.58,7.94-3.71-1.25-5.42-5.16-6.19-9.13a36.22,36.22,0,0,1-.56-7.37,5.59,5.59,0,0,1,3-4.79c4.95-2.66,10.17-1.67,13.61-.42A5.62,5.62,0,0,1,263.27,37.14Z"></path><ellipse class="i" cx="248.54" cy="41.15" rx="0.7" ry="1.04"></ellipse><ellipse class="i" cx="257.18" cy="41.15" rx="0.7" ry="1.04"></ellipse><path class="i" d="M247.16,38.05a12.29,12.29,0,0,1,3-.43.5.5,0,0,1,.52.58h0a.52.52,0,0,1-.54.4,13.49,13.49,0,0,0-4.1.48.74.74,0,0,1,.24-.53A1.85,1.85,0,0,1,247.16,38.05Z"></path><path class="i" d="M258.46,38.07a12.29,12.29,0,0,0-3-.43.5.5,0,0,0-.52.58h0a.52.52,0,0,0,.54.4,13.71,13.71,0,0,1,4.09.48.72.72,0,0,0-.23-.53A1.85,1.85,0,0,0,258.46,38.07Z"></path><path class="h" d="M253,45.9a1.19,1.19,0,0,1-.59-.13.78.78,0,0,1-.39-.63,36.8,36.8,0,0,1,.16-4,.27.27,0,0,1,.29-.24.27.27,0,0,1,.25.28,37,37,0,0,0-.16,3.92.26.26,0,0,0,.13.24,1.72,1.72,0,0,0,1.09-.1.28.28,0,0,1,.35.14.27.27,0,0,1-.15.34A3.27,3.27,0,0,1,253,45.9Z"></path><path class="k" d="M249.6,47.52a3.13,3.13,0,0,0,3.17,2.76,3,3,0,0,0,3.16-2.76Z"></path><path class="h" d="M252.74,51.78a2.87,2.87,0,0,1-1.27-.35.24.24,0,0,1-.09-.35.29.29,0,0,1,.37-.09h0a2.31,2.31,0,0,0,1,.28,2.48,2.48,0,0,0,1-.28.29.29,0,0,1,.37.09.26.26,0,0,1-.09.35A3,3,0,0,1,252.74,51.78Z"></path><path class="i" d="M264.35,36.72a.86.86,0,0,1-.65.47,15.93,15.93,0,0,1-.09,1.9c-.34,3.7-1.25,5.07-1.69,5s.37-4.31.51-6.77c-.77,0-1.87-.17-1.87-.17l-.9-3.59-.32,3.55c-1.36.44-4.53-.27-4.53-.27l-1.07-3.55-.66,3.41a8,8,0,0,1-4.58.32l-.59-3.68L246.56,37a20.63,20.63,0,0,1-3.33.63c-.15,1.62.64,5,.48,6.28-.22,1.73-1.14.16-1.65-3.79a14.78,14.78,0,0,1,.1-3.23h0c.05-.42.08-.71.09-.77h0c.2-1.14.69-2.86,1.11-4.27a7.81,7.81,0,0,1,3.95-4.75,15.16,15.16,0,0,1,13.06-.18C264.52,29.25,264.35,36.72,264.35,36.72Z"></path><path class="i" d="M242.25,36.11c0,.06,0,.35-.09.77A5.07,5.07,0,0,1,242.25,36.11Z"></path><path class="b" d="M276.24,91.69c-1.79,4.87-9.83,4.51-19,1.86l0,0-.09,0-1.26-.38-.52-.17c-1-.31-2-.65-3-1-3.27-1.17-6.56-2.57-9.67-4l0-.05.94-2.31.31-.78s17,1.75,25.51.06l.42-.09a3.1,3.1,0,0,0-.1-.53c-4.52-14.57.43-17.37,2.08-19.4C271.88,64.8,279.63,82.51,276.24,91.69Z"></path><path class="o" d="M273.48,87.18a.32.32,0,0,1-.16,0A.37.37,0,0,1,273,87c-.64-1.26-2.84-2-3.51-2.21l.42-.09c0-.18-.06-.35-.1-.53.86.27,3.1,1.09,3.84,2.53A.32.32,0,0,1,273.48,87.18Z"></path><path class="o" d="M249.71,86.57c-3.47,0-6.28-.19-6.52-.2a.35.35,0,1,1,.05-.69c.13,0,12.86.87,17.88-1.06a.37.37,0,0,1,.47.19.34.34,0,0,1-.2.44C258.61,86.32,253.72,86.57,249.71,86.57Z"></path><path class="o" d="M255.87,93.13h0c2.91-.76,5.55-1.5,7.07-2a8.41,8.41,0,0,0,4.67-4.39.36.36,0,0,1,.47-.18.34.34,0,0,1,.19.45,9.14,9.14,0,0,1-5.11,4.77c-1.1.34-2.79.82-4.75,1.35a4.67,4.67,0,0,1-2.54,0Z"></path><path class="b" d="M263.7,90.77c-26.23,8.37-34.29,2.89-34.29,2.89C227.64,78.54,234.15,65,234.15,65a67.08,67.08,0,0,1,4.09,8.24l.58,11.59,0,.32,0,.15-.11.79v0l.17,0c7.93,1.59,22.44-.18,22.44-.18Z"></path><path class="o" d="M238.81,86.09a25.21,25.21,0,0,0-4,3.91.39.39,0,0,1-.51.07.33.33,0,0,1-.07-.48h0a26.17,26.17,0,0,1,4.48-4.34l-.11.79v0Z"></path><path class="p" d="M261.25,85.91s2.91-6.25,7.32-5.69l1.33,4.51c-2.42,1-2.77,4.9-6.2,6Z"></path><path class="p" d="M244,84.76a10.35,10.35,0,0,0-6.66-5.26c-4.83-1.18-7.9,1-8.23,1.79s1.82,0,1.82,0a4.19,4.19,0,0,0-2.19,1.62c-.81,1.24,1.94-.1,1.94-.1s-2,.82-2.22,1.58,2.35-.53,2.84-.5c0,0-2.32.87-2.31,1.66s2.67-.5,4.65-.4a32.65,32.65,0,0,1,5,.88,35.15,35.15,0,0,0,4.57.57Z"></path><rect class="l" x="87.72" y="118.66" width="69.61" height="89.4" rx="3.08"></rect><path class="k" d="M153,125.33V201.4a2.43,2.43,0,0,1-.42,1.37,2.72,2.72,0,0,1-2.25,1.16H94.76a2.61,2.61,0,0,1-2.68-2.53V125.33a2.61,2.61,0,0,1,2.68-2.53h55.53A2.6,2.6,0,0,1,153,125.33Z"></path><path class="a" d="M113.28,139.62H95.89a1.41,1.41,0,0,1-1.44-1.37h0a1.41,1.41,0,0,1,1.44-1.37h17.39a1.41,1.41,0,0,1,1.44,1.37h0A1.41,1.41,0,0,1,113.28,139.62Z"></path><path class="a" d="M113.28,145.26H95.89a1.4,1.4,0,0,1-1.44-1.37h0a1.4,1.4,0,0,1,1.44-1.36h17.39a1.4,1.4,0,0,1,1.44,1.36h0A1.4,1.4,0,0,1,113.28,145.26Z"></path><path class="a" d="M113.28,150.9H95.89a1.4,1.4,0,0,1-1.44-1.37h0a1.4,1.4,0,0,1,1.44-1.36h17.39a1.4,1.4,0,0,1,1.44,1.36h0A1.4,1.4,0,0,1,113.28,150.9Z"></path><path class="a" d="M113.28,156.54H95.89a1.4,1.4,0,0,1-1.44-1.36h0a1.4,1.4,0,0,1,1.44-1.37h17.39a1.4,1.4,0,0,1,1.44,1.37h0A1.4,1.4,0,0,1,113.28,156.54Z"></path><path class="a" d="M149.34,153.59h-17.4a1.41,1.41,0,0,1-1.44-1.37h0a1.41,1.41,0,0,1,1.44-1.36h17.4a1.41,1.41,0,0,1,1.44,1.36h0A1.41,1.41,0,0,1,149.34,153.59Z"></path><path class="a" d="M149.34,159.23h-17.4a1.41,1.41,0,0,1-1.44-1.37h0a1.41,1.41,0,0,1,1.44-1.36h17.4a1.41,1.41,0,0,1,1.44,1.36h0A1.41,1.41,0,0,1,149.34,159.23Z"></path><path class="a" d="M149.34,164.87h-17.4a1.41,1.41,0,0,1-1.44-1.36h0a1.41,1.41,0,0,1,1.44-1.37h17.4a1.41,1.41,0,0,1,1.44,1.37h0A1.41,1.41,0,0,1,149.34,164.87Z"></path><path class="a" d="M149.34,170.51h-17.4a1.41,1.41,0,0,1-1.44-1.36h0a1.41,1.41,0,0,1,1.44-1.37h17.4a1.41,1.41,0,0,1,1.44,1.37h0A1.41,1.41,0,0,1,149.34,170.51Z"></path><path class="a" d="M153,125.33v5.94H92.08v-5.94a2.61,2.61,0,0,1,2.68-2.53h55.53A2.6,2.6,0,0,1,153,125.33Z"></path><path class="k" d="M145.32,126.2H110.38a1.19,1.19,0,0,0-1.2.94,1.14,1.14,0,0,0,1.16,1.28h35a1.15,1.15,0,0,0,1.18-1.11h0A1.14,1.14,0,0,0,145.32,126.2Z"></path><path class="n" d="M98.35,127.31v.82a.32.32,0,0,1-.48.27l-.75-.42-.76-.41a.3.3,0,0,1,0-.53l.76-.41.75-.41a.32.32,0,0,1,.48.26Z"></path><path class="n" d="M102.27,127.31v.82a.33.33,0,0,0,.49.27l.75-.42.76-.41a.3.3,0,0,0,0-.53l-.76-.41-.75-.41a.33.33,0,0,0-.49.26Z"></path><path class="o" d="M107.7,165.9c-.63,4.33-6.6,18.37-8.07,30.49-.29,2.39-.72,5.21-1.11,7.54H94.76a2.61,2.61,0,0,1-2.68-2.53V187.9c.41-2.32.87-4.49,1.39-6.82a148.68,148.68,0,0,1,7.78-23.55c.68-1.71,1.8-3.69,3.48-4.57C107.18,154.36,108.24,162.13,107.7,165.9Z"></path><path class="o" d="M152.54,202.77a2.72,2.72,0,0,1-2.25,1.16H145c-.39-2.33-.9-5.15-1.19-7.54-1.48-12.12-7.45-26.16-8.07-30.49-.55-3.77.52-11.54,3-12.94,1.68.88,2.81,2.86,3.49,4.57A149.91,149.91,0,0,1,150,181.08a108.9,108.9,0,0,1,2.32,13.55C152.51,196.54,152.55,199.76,152.54,202.77Z"></path><path class="b" d="M142.52,203.93c0-.59,0-1.18,0-1.79,0-.27,0-.53,0-.8,0-2.37-.07-4.82-.12-7.32,0-1.23,0-2.48-.07-3.73,0-.29,0-.58,0-.87s0-.6,0-.9l0-1.62c0-.6,0-1.19,0-1.78,0-.12,0-.25,0-.37l0-1v-.23c0-.59,0-1.18,0-1.77-.39-13.87-1-26.21-2.06-27.65a17,17,0,0,0-4.48-3.5l-.75-.45c-.87-.5-7.88-2.76-8.77-3.26l-7.42-.49c-.05,0-7.14,2.29-7.19,2.31l-.91.5a42.45,42.45,0,0,0-6.71,4.25,6.25,6.25,0,0,0-.58.55c-.14.15-.25.29-.35.42a2.55,2.55,0,0,0-.26.62c-.86,3-1.32,14.18-1.57,26.7l0,1.73v0l0,1.61v.24c0,.32,0,.64,0,1v.58c0,.22,0,.45,0,.68s0,.58,0,.87v.43c0,.1,0,.21,0,.31,0,.37,0,.74,0,1.1s0,.49,0,.74c0,.52,0,1.05,0,1.58,0,3.91-.06,7.75-.07,11.32Z"></path><path class="o" d="M101,183.47v0h41.12c0-.59,0-1.18,0-1.77h-41Z"></path><path class="o" d="M101,186.9h41.26c0-.6,0-1.19,0-1.78H101v.24c0,.32,0,.64,0,1Z"></path><path class="o" d="M100.92,190.29H142.3c0-.29,0-.58,0-.87s0-.6,0-.9H100.94v.36c0,.1,0,.21,0,.31C100.93,189.56,100.92,189.93,100.92,190.29Z"></path><path class="o" d="M108.24,172.23a.39.39,0,0,0-.7-.22,35.53,35.53,0,0,0-5.84,11c-.27.83-.51,1.62-.71,2.38,0,.32,0,.64,0,1s0,.84,0,1.26,0,.58,0,.86v.44c0,.1,0,.21,0,.31a43,43,0,0,1,1.51-6,34.87,34.87,0,0,1,5.72-10.73.35.35,0,0,0,.08-.22Z"></path><path class="o" d="M126,203.93c1.07-.59,2-1.2,2.91-1.78a43,43,0,0,0,7.54-6.32.35.35,0,0,0-.05-.52.39.39,0,0,0-.54.05,42.41,42.41,0,0,1-7.41,6.21,44,44,0,0,1-4,2.36Z"></path><path class="o" d="M124.25,161.66a.39.39,0,0,0,.38-.3.36.36,0,0,0-.31-.42c-9.77-1.76-12.71-7.71-12.74-7.77a.4.4,0,0,0-.51-.18.35.35,0,0,0-.19.48c.12.26,3.14,6.36,13.29,8.18Z"></path><path class="i" d="M111.3,125.06s-.73-4.21.35-5.65,2.84-1,4.72-2.65,7.61-.07,10.12-.5c1.38-.24,2.85-.06,4.2-.32,1.93-.37,3,1.44,2.5,3.23-.3,1.14-.9,2.85-2.64,3.3C130.55,122.47,113.88,119.59,111.3,125.06Z"></path><path class="i" d="M110.92,128.42c0,6.1,4,10.3,10.4,10.3s10.93-4.52,10.93-10.62-3.81-10.72-10.25-10.72C114.27,117.38,110.92,122.32,110.92,128.42Z"></path><path class="h" d="M112.36,131s-1.79-2.26-3.12-.39.55,7.39,3.81,6Z"></path><path class="j" d="M112.34,135a.29.29,0,0,1-.27-.19,4.09,4.09,0,0,0-2.38-2.4.26.26,0,0,1-.16-.34.27.27,0,0,1,.35-.15,4.63,4.63,0,0,1,2.73,2.74.27.27,0,0,1-.2.33Z"></path><path class="j" d="M110.46,134.13a.42.42,0,0,1-.15,0,.25.25,0,0,1-.08-.36,2.4,2.4,0,0,1,1-.79.28.28,0,0,1,.36.13.25.25,0,0,1-.13.34,2,2,0,0,0-.8.6A.27.27,0,0,1,110.46,134.13Z"></path><path class="h" d="M130.8,131s1.79-2.26,3.12-.39-.55,7.39-3.81,6Z"></path><path class="j" d="M130.83,135a.27.27,0,0,0,.26-.19,4.1,4.1,0,0,1,2.39-2.4.27.27,0,0,0,.16-.34.28.28,0,0,0-.36-.15,4.63,4.63,0,0,0-2.72,2.74.27.27,0,0,0,.19.33Z"></path><path class="j" d="M132.71,134.13a.42.42,0,0,0,.15,0,.26.26,0,0,0,.08-.36,2.56,2.56,0,0,0-1-.79.28.28,0,0,0-.36.13.25.25,0,0,0,.14.34,2,2,0,0,1,.79.6A.3.3,0,0,0,132.71,134.13Z"></path><path class="g" d="M126,141.37v5.49s-1.73,2.79-4.07,3-4.41-2.4-4.41-2.4v-5.68Z"></path><path class="h" d="M126,141.37v2.43c-1.57,1.65-4.36,2.06-8.48,1.49v-3.53Z"></path><path class="g" d="M111.41,130.94c0,.32,0,.64.09,1,.08.82.2,1.66.36,2.5,0,0,0,.06,0,.08.77,4.05,2.52,8,6.29,9.3,8.54,2.89,11.59-4.05,12.81-8.09a13.38,13.38,0,0,0,.36-1.48.64.64,0,0,0,0-.07c.12-.6.22-1.23.31-1.89.06-.49.12-1,.17-1.48.12-1.2.2-2.42.25-3.49a5.68,5.68,0,0,0-3.86-5.6c-3.5-1.28-8.82-2.28-13.86.42A5.71,5.71,0,0,0,111.3,127C111.28,128.09,111.3,129.47,111.41,130.94Z"></path><path class="i" d="M111.41,130.94c0,.32,0,.64.09,1,.08.82.2,1.66.36,2.5,0,0,0,.06,0,.08.77,4.05,2.52,8,6.29,9.3,8.54,2.89,11.59-4.05,12.81-8.09a13.38,13.38,0,0,0,.36-1.48.64.64,0,0,0,0-.07c.12-.6.22-1.23.31-1.89.06-.49.12-1,.17-1.48l-1.28.32a24.31,24.31,0,0,1-1.63,5.74c-1.12-2.59-7.35-.45-7.35-.45s-5.55-1.87-7.43,0a48.09,48.09,0,0,1-1.69-5.28Zm10,6.4c4.48-.59,5.6.5,5.81,1.76a7.85,7.85,0,0,1-3.82,2.17,9.23,9.23,0,0,1-6.92-1.4C116.24,138.9,116,136,121.4,137.34Z"></path><path class="i" d="M118,131.37c0,.58-.32,1.06-.71,1.06s-.72-.48-.72-1.06.32-1.06.72-1.06S118,130.78,118,131.37Z"></path><path class="i" d="M126.49,131.37c0,.58-.32,1.06-.71,1.06s-.71-.48-.71-1.06.32-1.06.71-1.06S126.49,130.78,126.49,131.37Z"></path><path class="i" d="M128.16,127.87a6.36,6.36,0,0,0-4-.13l.17.91a11.46,11.46,0,0,1,3.82.29A1.57,1.57,0,0,0,128.16,127.87Z"></path><path class="i" d="M114.83,127.87a6.36,6.36,0,0,1,4-.13l-.17.91a11.46,11.46,0,0,0-3.82.29A1.52,1.52,0,0,1,114.83,127.87Z"></path><path class="h" d="M121.86,136a2.87,2.87,0,0,1-1-.08.26.26,0,0,1-.2-.32.28.28,0,0,1,.34-.18,1.83,1.83,0,0,0,1.11,0,.26.26,0,0,0,.1-.26,37.67,37.67,0,0,0-.67-3.94.26.26,0,0,1,.21-.31.28.28,0,0,1,.33.2,37.08,37.08,0,0,1,.68,4,.76.76,0,0,1-.31.68A1.15,1.15,0,0,1,121.86,136Z"></path><path class="k" d="M118.1,137.53a3.45,3.45,0,0,0,3.49,3,3.34,3.34,0,0,0,3.48-3Z"></path><path class="i" d="M131.8,131.09h-1.24a8.17,8.17,0,0,0-.7-3.57c-.85-2.17,1-3.12-.5-4.21s-5.12-.62-7.66-.7a56.87,56.87,0,0,0-7.66.18c-1,.21-.45,1.78-.08,3s-1.23,2.56-1.5,3.82a5.57,5.57,0,0,0,0,1.48h-1a40.14,40.14,0,0,1-.11-4.11,5.68,5.68,0,0,1,3.06-4.88c5-2.7,10.36-1.7,13.86-.42a5.72,5.72,0,0,1,3.87,5.6C132,128.45,132,129.78,131.8,131.09Z"></path><path class="k" d="M122.94,131.89a3.28,3.28,0,1,1,3.28,3.11A3.2,3.2,0,0,1,122.94,131.89Zm.51,0a2.77,2.77,0,1,0,2.77-2.62A2.7,2.7,0,0,0,123.45,131.89Z"></path><path class="k" d="M114,131.89a3.28,3.28,0,1,1,3.28,3.11A3.2,3.2,0,0,1,114,131.89Zm.51,0a2.77,2.77,0,1,0,2.77-2.62A2.7,2.7,0,0,0,114.49,131.89Z"></path><path class="k" d="M129,130.89a.26.26,0,0,0,.18-.07h0a4.16,4.16,0,0,1,3.45-.95.26.26,0,0,0,.31-.18.24.24,0,0,0-.19-.29,4.56,4.56,0,0,0-3.93,1.08.23.23,0,0,0,0,.34A.26.26,0,0,0,129,130.89Z"></path><path class="k" d="M114.47,130.89a.26.26,0,0,0,.21-.11.22.22,0,0,0-.07-.33c-.1-.06-2.42-1.48-4.39-1.17a.23.23,0,0,0-.21.27.24.24,0,0,0,.29.2c1.78-.27,4,1.09,4,1.1A.23.23,0,0,0,114.47,130.89Z"></path><path class="k" d="M120.36,131.19a2.09,2.09,0,0,1,1.41-.78,1.85,1.85,0,0,1,1.34.78l.43-.26a2.38,2.38,0,0,0-1.77-1,2.56,2.56,0,0,0-1.83,1Z"></path><rect class="l" x="239.7" y="123.71" width="65.68" height="84.35" rx="3.08"></rect><path class="k" d="M301.26,130v71.77a2.46,2.46,0,0,1-2.53,2.39H246.34a2.46,2.46,0,0,1-2.52-2.39V130a2.46,2.46,0,0,1,2.52-2.39h52.39A2.46,2.46,0,0,1,301.26,130Z"></path><path class="a" d="M279.85,142.75h17.39a1.4,1.4,0,0,0,1.44-1.37h0a1.4,1.4,0,0,0-1.44-1.36H279.85a1.4,1.4,0,0,0-1.44,1.36h0A1.4,1.4,0,0,0,279.85,142.75Z"></path><path class="a" d="M279.85,148.39h17.39a1.4,1.4,0,0,0,1.44-1.37h0a1.4,1.4,0,0,0-1.44-1.36H279.85a1.4,1.4,0,0,0-1.44,1.36h0A1.4,1.4,0,0,0,279.85,148.39Z"></path><path class="a" d="M279.85,154h17.39a1.4,1.4,0,0,0,1.44-1.37h0a1.4,1.4,0,0,0-1.44-1.36H279.85a1.4,1.4,0,0,0-1.44,1.36h0A1.4,1.4,0,0,0,279.85,154Z"></path><path class="a" d="M279.85,159.67h17.39a1.4,1.4,0,0,0,1.44-1.36h0a1.4,1.4,0,0,0-1.44-1.37H279.85a1.4,1.4,0,0,0-1.44,1.37h0A1.4,1.4,0,0,0,279.85,159.67Z"></path><path class="a" d="M248.61,160H266a1.4,1.4,0,0,0,1.44-1.37h0a1.4,1.4,0,0,0-1.44-1.36H248.61a1.4,1.4,0,0,0-1.44,1.36h0A1.4,1.4,0,0,0,248.61,160Z"></path><path class="a" d="M248.61,165.62H266a1.4,1.4,0,0,0,1.44-1.36h0a1.4,1.4,0,0,0-1.44-1.37H248.61a1.4,1.4,0,0,0-1.44,1.37h0A1.4,1.4,0,0,0,248.61,165.62Z"></path><path class="a" d="M248.61,171.26H266a1.4,1.4,0,0,0,1.44-1.36h0a1.4,1.4,0,0,0-1.44-1.37H248.61a1.4,1.4,0,0,0-1.44,1.37h0A1.4,1.4,0,0,0,248.61,171.26Z"></path><path class="a" d="M248.61,176.91H266a1.41,1.41,0,0,0,1.44-1.37h0a1.4,1.4,0,0,0-1.44-1.37H248.61a1.4,1.4,0,0,0-1.44,1.37h0A1.41,1.41,0,0,0,248.61,176.91Z"></path><path class="a" d="M301.26,130v5.61H243.82V130a2.46,2.46,0,0,1,2.52-2.39h52.39A2.46,2.46,0,0,1,301.26,130Z"></path><path class="k" d="M294.05,130.82h-33a1.12,1.12,0,0,0-1.13.89,1.07,1.07,0,0,0,1.09,1.21h33a1.08,1.08,0,0,0,1.11-1h0A1.08,1.08,0,0,0,294.05,130.82Z"></path><path class="n" d="M249.73,131.87v.78a.31.31,0,0,1-.46.25l-.71-.39-.71-.39a.28.28,0,0,1,0-.5l.71-.39.71-.39a.31.31,0,0,1,.46.25Z"></path><path class="n" d="M253.43,131.87v.78a.31.31,0,0,0,.46.25l.71-.39.71-.39a.28.28,0,0,0,0-.5l-.71-.39-.71-.39a.31.31,0,0,0-.46.25Z"></path><path class="g" d="M249.93,180l3.77-27.7s2.67-1.51,6.26.73c0,0-1.63,25.78-3.18,34.71a117.72,117.72,0,0,1-4.8,16.44h-5.91c1-6.57,1.52-14.78,2.57-18.17a23.08,23.08,0,0,1,.87-2.89Z"></path><path class="g" d="M295,180l-2.44-26.52a71,71,0,0,1-7.59-.45s1.62,25.78,3.17,34.71a119.09,119.09,0,0,0,4.8,16.44h5.91c-1-6.57-1.52-14.78-2.57-18.17a23.08,23.08,0,0,0-.87-2.89Z"></path><path class="i" d="M273.36,119.17s.35-6.87-4.06-8.19c-6.87-2-8.78,1.32-9.84,3.55-1.36,2.86-.78,8.46,3.31,9C268.89,124.34,273,121.09,273.36,119.17Z"></path><path class="i" d="M277.79,142.13a7.46,7.46,0,0,0,7.39-5.67,36.87,36.87,0,0,0,1-5.68v0c0-.38,0-.75,0-1.12.05-5.42-3.48-15.32-15.89-13.74,0,0-10.3,1.11-11.47,10.64,0,0-.49,4.39-.81,7.58,0,0,0,.11,0,.17a7.3,7.3,0,0,0,7.51,7.85Z"></path><path class="c" d="M254.57,159.22c.12.74.24,1.53.38,2.37.34,2.12.78,4.54,1.31,7.22.15.78.32,1.58.49,2.41.49,2.27,1,4.69,1.67,7.23l.61,2.43c.43,1.61.88,3.28,1.37,5,0,.67-.13,1.4-.25,2.17s-.23,1.49-.38,2.29c-.23,1.19-.5,2.45-.8,3.76-.23,1-.47,2-.73,3-.18.75-.37,1.5-.56,2.26-.4,1.58-.81,3.18-1.21,4.78H289l-1.15-4.75-.53-2.24-.78-3.23-.86-3.57-.54-2.24-.28-1.16,1.39-6.05.55-2.4,1.67-7.3.55-2.43,1.68-7.33.56-2.43,1.27-5.57-3.28-1.09-4.93-1.64-.11,0-2.75-.92-.44-.14-3.77-1.06s-2.12,1-9.53-.52c0,0-1.63.28-3.81.76l-.74.17c-1.66.38-3.54.86-5.24,1.41a17.3,17.3,0,0,0-4,1.73l-.23.16s.15,1.7.56,4.7C254.35,157.66,254.45,158.41,254.57,159.22Z"></path><path class="g" d="M281.45,149.77c-.79,4.39-3,8.81-7.71,9.29-5.64.57-8.57-6.13-9.84-10.25,2.18-.48,4.44-.95,4.44-.95,7.41,1.47,8.85.57,8.85.57l3.82,1.2Z"></path><path class="k" d="M273.17,155.37c-5.92,0-7.33-6.92-7.34-7a.27.27,0,0,1,.23-.32.29.29,0,0,1,.34.22c.05.28,1.4,6.8,7.11,6.53,5-.24,5.3-5.5,5.31-5.72a.29.29,0,0,1,.31-.27.29.29,0,0,1,.28.29c0,.06-.33,6-5.87,6.25Z"></path><ellipse class="d" cx="261.11" cy="153.46" rx="1.44" ry="1.37"></ellipse><path class="d" d="M259.67,160.13a1.45,1.45,0,1,1-1.45-1.37A1.41,1.41,0,0,1,259.67,160.13Z"></path><path class="d" d="M268.89,163.29a1.45,1.45,0,1,1-1.45-1.37A1.41,1.41,0,0,1,268.89,163.29Z"></path><path class="d" d="M262.46,167a1.34,1.34,0,0,1-.81,1.77,1.48,1.48,0,0,1-1.88-.76,1.36,1.36,0,0,1,.81-1.78A1.47,1.47,0,0,1,262.46,167Z"></path><path class="d" d="M275,169.54a1.45,1.45,0,0,1-2.89,0,1.45,1.45,0,0,1,2.89,0Z"></path><path class="d" d="M284.18,172.36a1.45,1.45,0,1,1-1.44-1.37A1.41,1.41,0,0,1,284.18,172.36Z"></path><path class="d" d="M286,154.83a1.45,1.45,0,0,1-2.89,0,1.45,1.45,0,0,1,2.89,0Z"></path><path class="d" d="M275.56,178.27a1.45,1.45,0,1,1-1.45-1.36A1.41,1.41,0,0,1,275.56,178.27Z"></path><path class="d" d="M266.66,182.51a1.45,1.45,0,1,1-1.44-1.37A1.41,1.41,0,0,1,266.66,182.51Z"></path><path class="d" d="M265.62,174.79a1.44,1.44,0,1,1-1.44-1.37A1.4,1.4,0,0,1,265.62,174.79Z"></path><path class="d" d="M279.85,163.64a1.45,1.45,0,1,1-1.44-1.36A1.41,1.41,0,0,1,279.85,163.64Z"></path><path class="d" d="M287.83,161.92a1.44,1.44,0,1,1-1.44-1.37A1.41,1.41,0,0,1,287.83,161.92Z"></path><path class="d" d="M282.74,180.53a1.45,1.45,0,1,1-1.45-1.36A1.41,1.41,0,0,1,282.74,180.53Z"></path><path class="d" d="M283.13,191.35a1.45,1.45,0,1,1-1.45-1.36A1.41,1.41,0,0,1,283.13,191.35Z"></path><path class="d" d="M275.78,186.84a1.36,1.36,0,0,1-.81,1.78,1.48,1.48,0,0,1-1.88-.77,1.34,1.34,0,0,1,.81-1.77A1.48,1.48,0,0,1,275.78,186.84Z"></path><path class="d" d="M266,190.85a1.34,1.34,0,0,1-.81,1.77,1.48,1.48,0,0,1-1.88-.76,1.36,1.36,0,0,1,.81-1.78A1.47,1.47,0,0,1,266,190.85Z"></path><path class="i" d="M289,204.16l-.15-.63-1-4.12-.36-1.51-.17-.73-.08-.34-.7-2.89c-10.89,3.05-22.44,1.24-27.56.15-.23,1-.48,2-.73,3-.05.22-.11.45-.17.67l-.27,1.07c0,.17-.08.33-.13.51-.39,1.58-.8,3.18-1.21,4.78Z"></path><path class="h" d="M282,131.4s1.78-2.12,3.09-.36-.54,7-3.77,5.68Z"></path><path class="j" d="M282,135.12a.3.3,0,0,0,.26-.18,4,4,0,0,1,2.36-2.26.25.25,0,0,0,.16-.32.27.27,0,0,0-.35-.14,4.52,4.52,0,0,0-2.7,2.58.26.26,0,0,0,.19.31Z"></path><path class="j" d="M283.89,134.31a.28.28,0,0,0,.15,0,.24.24,0,0,0,.08-.34,2.43,2.43,0,0,0-1-.74.29.29,0,0,0-.36.12.24.24,0,0,0,.14.33,1.83,1.83,0,0,1,.79.56A.28.28,0,0,0,283.89,134.31Z"></path><path class="k" d="M281.2,136.69a1.76,1.76,0,0,0-.49,1.21,1.93,1.93,0,0,0,3.85,0,1.78,1.78,0,0,0-.74-1.43,1.87,1.87,0,0,0-.77-.35.31.31,0,0,1,.07-.34,2.26,2.26,0,0,1,1,.45,2.15,2.15,0,0,1,.83,1.67,2.3,2.3,0,0,1-4.59,0,2.11,2.11,0,0,1,.51-1.36Z"></path><path class="g" d="M268.34,142.27v6.37s3.13,2.28,5.57,2.48,3.28-2.52,3.28-2.52v-5.93Z"></path><path class="h" d="M268.34,142.89v2.54c1.64,1.72,4.54,2.33,8.84,1.73V143.3Z"></path><path class="g" d="M283.07,133.83c-.08.61-.17,1.24-.29,1.86-.77,4.14-3.54,8.62-7,9.37-7.55,1.62-10.68-4-11.89-8.13-.13-.46.12-1,0-1.53a38.75,38.75,0,0,1-.92-4.2c-.09-1-.15-2-.2-2.89a5.84,5.84,0,0,1,3.83-5.73c3.47-1.31,8.74-2.34,13.73.43a5.87,5.87,0,0,1,3,5A43.17,43.17,0,0,1,283.07,133.83Z"></path><path class="h" d="M273.5,137a.28.28,0,0,1-.05-.55l1-.16-1.39-3.5a.26.26,0,0,1,.17-.35.3.3,0,0,1,.38.16l1.64,4.13-1.71.27Z"></path><path class="i" d="M277.11,132.4c0,.62.33,1.11.74,1.11s.75-.49.75-1.11-.34-1.1-.75-1.1S277.11,131.79,277.11,132.4Z"></path><path class="i" d="M268.89,132.4c0,.62.34,1.11.75,1.11s.74-.49.74-1.11-.33-1.1-.74-1.1S268.89,131.79,268.89,132.4Z"></path><path class="i" d="M280,129.5a15.35,15.35,0,0,0-3.1-.25c-.33,0-.61.25-.56.51h0a.48.48,0,0,0,.54.32,17.31,17.31,0,0,1,4.24.25.51.51,0,0,0-.22-.44A2,2,0,0,0,280,129.5Z"></path><path class="i" d="M268.09,129.63a16.07,16.07,0,0,1,3.09-.29c.34,0,.61.25.57.51h0a.48.48,0,0,1-.54.33,16.89,16.89,0,0,0-4.23.31.49.49,0,0,1,.21-.44A1.88,1.88,0,0,1,268.09,129.63Z"></path><path class="k" d="M277.11,138.68a3.26,3.26,0,0,1-3.37,2.77,3.14,3.14,0,0,1-3.36-2.77Z"></path><path class="h" d="M273.77,143.12a3.13,3.13,0,0,0,1.35-.37.27.27,0,0,0,.09-.38.3.3,0,0,0-.39-.09h0a2.29,2.29,0,0,1-1.05.3,2.35,2.35,0,0,1-1.1-.3.31.31,0,0,0-.4.1.27.27,0,0,0,.1.37A3.24,3.24,0,0,0,273.77,143.12Z"></path><path class="i" d="M283.37,133.18c-.07,0-.13,0-.2-.08-1-1.66-.06-5-3-6.25a6.06,6.06,0,0,1-3.05-3,6.2,6.2,0,0,1-1.85,1.59,53.88,53.88,0,0,1-6.92,3.19,11.24,11.24,0,0,0-2.32,1.11h.06a4.81,4.81,0,0,0-.26,3.84c.72,2.33-.2,6.18-1.79,7.07a8.09,8.09,0,0,0,.55-4.9c-.39-1.24-.39-3.23-.75-4.41-.41-.27-1.35-.71-1.67-.89-.09-1-.15-2-.2-2.94a6,6,0,0,1,4-5.85c3.66-1.33,9.21-2.38,14.47.44a6,6,0,0,1,3.21,5.09A42.08,42.08,0,0,1,283.37,133.18Z"></path><path class="g" d="M263.83,131.39s-2.07-2.37-3.28-.66.58,6.94,3.56,5.71Z"></path><path class="k" d="M263.91,136.52a1.74,1.74,0,0,1,.17,1.29,1.93,1.93,0,0,1-2.33,1.32,1.81,1.81,0,0,1-1.4-2.2,1.84,1.84,0,0,1,1.07-1.22,2,2,0,0,1,.84-.16.39.39,0,0,0,0-.35,2.37,2.37,0,0,0-1.06.22,2.13,2.13,0,0,0,.44,4.05,2.31,2.31,0,0,0,2.78-1.58,2.06,2.06,0,0,0-.15-1.43Z"></path><path class="h" d="M263.38,134.69a.25.25,0,0,1-.24-.18,3.82,3.82,0,0,0-2.19-2.19.24.24,0,0,1-.14-.31.26.26,0,0,1,.32-.14,4.24,4.24,0,0,1,2.49,2.52.24.24,0,0,1-.17.29Z"></path><path class="h" d="M261.66,133.9a.35.35,0,0,1-.14,0,.23.23,0,0,1-.07-.33,2.15,2.15,0,0,1,.94-.72.26.26,0,0,1,.34.12.23.23,0,0,1-.13.31,1.86,1.86,0,0,0-.73.54A.26.26,0,0,1,261.66,133.9Z"></path></svg> 